<?xml version="1.0" standalone="no"?>
<!DOCTYPE svg PUBLIC "-//W3C//DTD SVG 20010904//EN"
 "http://www.w3.org/TR/2001/REC-SVG-20010904/DTD/svg10.dtd">
<svg version="1.0" xmlns="http://www.w3.org/2000/svg"
 width="800.000000pt" height="800.000000pt" viewBox="0 0 800.000000 800.000000"
 preserveAspectRatio="xMidYMid meet">
<metadata>
Created by potrace 1.11, written by Peter Selinger 2001-2013
</metadata>
<g transform="translate(0.000000,800.000000) scale(0.100000,-0.100000)"
fill="#000000" stroke="none">
<path d="M0 7775 l0 -225 30 0 c22 0 28 4 24 15 -5 12 4 15 51 15 56 0 57 0
51 26 l-7 25 30 -22 c42 -31 141 -36 141 -8 0 11 5 19 11 19 6 0 9 -9 6 -20
-4 -17 -1 -19 21 -14 39 10 46 15 31 25 -10 6 -10 9 -2 9 20 0 24 -17 8 -33
-20 -20 -19 -43 1 -51 33 -13 44 -6 44 24 0 24 4 30 22 30 12 0 18 -3 15 -7
-4 -3 0 -17 8 -30 9 -13 11 -23 6 -23 -5 0 -11 6 -14 13 -3 9 -7 9 -17 0 -10
-9 -4 -15 26 -29 22 -10 42 -20 46 -22 20 -10 5 34 -19 56 -16 13 -22 21 -15
18 16 -9 15 0 -4 29 -19 29 -42 39 -60 24 -10 -8 -14 -8 -14 0 0 6 5 11 11 11
6 0 9 9 6 20 -6 22 16 27 42 11 20 -13 51 -1 51 20 0 21 -59 89 -77 89 -7 0
-13 5 -13 10 0 13 13 13 26 0 5 -5 25 -12 42 -14 18 -2 36 -7 40 -11 4 -5 -1
-5 -11 -2 -15 6 -16 4 -5 -14 7 -12 19 -31 25 -43 13 -21 13 -21 13 4 1 23 2
22 19 -11 10 -20 25 -46 33 -58 l16 -22 4 26 c3 14 2 28 -2 30 -4 3 -11 20
-14 39 -5 28 -12 36 -36 41 -18 4 -30 13 -30 22 0 13 3 13 15 3 8 -7 21 -10
29 -7 19 8 66 -15 66 -31 0 -7 -4 -10 -10 -7 -6 3 -10 2 -10 -3 0 -6 7 -12 15
-16 8 -3 15 -12 15 -21 0 -8 7 -15 15 -15 18 0 19 -5 4 -32 -8 -15 -8 -19 0
-14 6 4 16 -5 23 -20 10 -22 10 -28 0 -32 -6 -2 -12 -8 -12 -13 0 -4 7 -6 15
-3 11 5 14 0 13 -17 -2 -18 3 -25 18 -27 15 -2 25 -15 33 -43 7 -22 18 -42 26
-45 8 -3 11 -13 9 -22 -3 -9 1 -6 9 8 10 17 12 30 6 42 -6 11 -5 19 1 23 8 5
7 12 -2 22 -12 15 -11 15 10 2 12 -8 22 -24 22 -37 0 -12 7 -25 15 -28 8 -4
15 -12 15 -20 0 -8 6 -11 15 -8 9 4 15 0 15 -10 0 -9 9 -21 20 -28 11 -7 20
-18 20 -25 0 -7 18 -23 40 -35 22 -13 40 -28 40 -34 0 -6 10 -16 23 -21 18 -9
14 -10 -23 -6 l-45 5 25 -21 c17 -14 20 -21 10 -21 -8 0 0 -9 18 -20 42 -26
42 -42 0 -28 -18 6 -35 14 -38 18 -3 4 -16 10 -30 14 -19 6 -21 5 -10 -3 13
-9 12 -11 -5 -11 -12 0 -26 5 -33 12 -9 9 -12 8 -12 -7 0 -11 12 -29 28 -42
15 -12 22 -22 16 -23 -6 0 -31 17 -55 38 -24 21 -52 42 -63 45 -13 5 -17 14
-14 31 4 19 0 25 -19 29 -19 3 -21 2 -12 -9 9 -11 8 -14 -2 -14 -8 -1 -2 -11
14 -23 15 -13 24 -26 21 -30 -10 -10 -24 -9 -24 2 0 5 -14 24 -31 41 -17 17
-29 24 -26 16 4 -9 -1 -17 -14 -21 -18 -6 -18 -8 -4 -28 16 -23 20 -63 8 -70
-12 -7 -113 41 -113 53 0 6 5 8 13 4 7 -5 6 -1 -3 10 -11 14 -15 15 -20 4 -3
-7 -11 -14 -18 -16 -8 -1 -11 2 -8 6 3 5 -3 17 -14 27 -11 10 -20 24 -20 32 0
8 -4 12 -9 9 -5 -3 -14 8 -21 24 -14 33 -25 38 -34 15 -3 -9 1 -18 9 -21 17
-7 21 -34 5 -34 -5 0 -10 -6 -10 -14 0 -9 7 -12 20 -9 14 4 20 0 20 -10 0 -8
-5 -17 -11 -19 -7 -2 -4 -10 7 -18 16 -13 17 -13 11 2 -3 9 1 22 9 28 17 15
17 14 5 -27 -9 -31 2 -58 12 -31 3 9 10 8 23 -6 11 -10 13 -16 7 -12 -7 4 -13
2 -13 -3 0 -6 -9 -11 -19 -11 -29 0 -12 -53 19 -60 13 -3 25 -11 28 -19 3 -10
0 -11 -17 -2 -16 9 -21 9 -21 0 0 -6 9 -13 20 -16 11 -3 20 -9 20 -14 0 -5 8
-9 18 -9 16 1 16 1 -1 11 -15 9 -15 12 -3 25 8 8 17 14 19 14 3 0 8 -27 12
-60 4 -33 11 -63 16 -66 18 -10 9 -24 -16 -24 -14 0 -25 5 -25 11 0 5 5 7 11
3 7 -4 10 0 7 11 -1 10 -13 21 -25 26 -17 6 -21 5 -17 -6 4 -10 0 -12 -15 -8
-12 3 -21 11 -21 18 0 7 -7 18 -15 25 -13 10 -15 9 -15 -11 -1 -21 -3 -19 -21
13 -10 21 -33 44 -49 53 -37 19 -39 19 -37 -4 0 -11 5 -17 10 -14 10 6 71 -56
63 -65 -3 -2 -14 6 -25 19 -16 20 -21 21 -34 10 -12 -10 -20 -10 -34 -1 -16
10 -16 11 0 6 27 -8 20 8 -16 40 -36 31 -70 46 -49 21 7 -8 9 -17 5 -20 -3 -4
1 -7 10 -7 16 0 21 -11 18 -37 -1 -7 4 -13 12 -13 8 0 26 -9 41 -21 14 -11 30
-18 34 -15 5 3 28 -5 53 -17 l43 -21 -33 -7 c-24 -5 -39 -3 -48 7 -18 17 -29
19 -15 2 6 -7 10 -17 9 -23 -1 -10 30 -28 68 -40 19 -6 19 -7 1 -20 -25 -19
-13 -45 21 -46 27 0 27 -1 5 -9 -27 -12 -28 -26 -2 -40 11 -6 18 -16 14 -22
-4 -7 -13 -3 -23 11 -9 12 -20 19 -23 15 -10 -9 12 -43 56 -83 21 -19 33 -37
27 -39 -6 -2 -8 -8 -5 -14 3 -5 -3 -4 -15 4 -12 7 -21 16 -21 19 0 12 -60 31
-80 26 -11 -3 -18 -1 -14 4 3 5 16 9 30 9 13 0 24 4 24 9 0 16 -20 23 -33 13
-7 -5 -24 -12 -40 -16 -15 -3 -42 -15 -60 -26 -26 -16 -28 -20 -12 -21 11 0
15 -3 8 -5 -16 -7 -5 -34 13 -34 8 0 14 -4 14 -9 0 -11 -25 -21 -55 -21 -13 0
-27 -4 -30 -10 -9 -14 -83 -32 -106 -25 -11 4 -23 15 -27 25 -5 13 -12 16 -20
11 -11 -6 -10 -11 3 -25 9 -9 13 -16 9 -16 -4 0 1 -8 12 -17 17 -16 36 -19
108 -14 12 1 16 6 12 17 -5 13 -1 15 19 10 28 -7 35 10 8 17 -10 3 -4 5 12 4
17 0 41 5 53 12 13 7 26 11 28 9 5 -6 -27 -39 -56 -58 -55 -37 -56 -39 -40
-50 12 -8 11 -10 -7 -10 -12 0 -25 -4 -28 -10 -10 -16 26 -11 70 9 40 18 65
18 65 0 0 -5 -11 -7 -25 -3 -15 4 -25 2 -25 -5 0 -6 8 -8 18 -5 14 5 14 3 -3
-11 -11 -9 -27 -14 -36 -12 -17 5 -19 -8 -6 -31 5 -7 13 -10 18 -7 5 3 6 -1 3
-10 -4 -8 -18 -18 -33 -22 -31 -7 -71 -32 -71 -43 0 -5 10 -6 22 -3 23 5 23 5
3 -10 -11 -8 -23 -13 -27 -11 -5 3 -8 -2 -8 -11 0 -11 5 -15 15 -11 8 3 15 1
15 -4 0 -6 -4 -10 -10 -10 -5 0 -10 -4 -10 -10 0 -14 16 -12 33 5 8 7 26 17
41 21 14 3 26 10 26 15 0 11 52 33 114 50 27 7 58 23 69 36 13 14 27 21 38 18
11 -4 26 3 40 17 12 13 19 16 14 8 -4 -8 3 -3 16 11 13 15 41 36 62 48 20 13
37 27 37 32 0 12 -27 12 -35 -1 -9 -14 -25 -12 -25 3 0 6 21 23 47 37 l48 25
-40 5 c-36 5 -37 6 -15 13 14 3 40 7 58 7 18 0 50 9 72 20 22 11 50 20 62 20
20 -1 19 -3 -9 -15 -17 -7 -36 -22 -42 -34 -10 -19 -38 -33 -71 -36 -8 -1 -23
-2 -32 -3 -10 -1 -18 -7 -18 -13 0 -7 9 -9 23 -5 12 4 37 8 55 10 35 4 82 30
82 46 0 6 11 15 25 20 16 6 23 14 19 25 -7 17 7 20 22 5 6 -6 21 -6 39 -1 17
4 58 8 92 7 64 -2 75 8 22 19 -20 5 -29 12 -25 20 3 9 -5 15 -27 18 -28 3 -27
4 9 5 50 2 73 24 53 49 -13 15 -12 15 9 2 19 -12 24 -12 31 0 6 10 10 10 16 1
4 -6 14 -9 22 -6 9 4 21 2 28 -4 9 -8 14 -6 19 5 5 13 16 15 67 9 50 -6 61 -4
57 7 -3 8 -18 17 -34 20 -24 5 -20 7 19 8 45 1 47 0 48 -26 1 -22 3 -19 11 15
11 48 28 56 28 12 0 -16 5 -30 11 -30 6 0 17 -6 25 -14 12 -13 12 -16 -3 -25
-10 -6 -13 -11 -8 -11 26 -1 -24 -20 -53 -20 -23 0 -32 -4 -29 -12 2 -7 8 -13
13 -13 5 -1 23 -9 39 -18 l30 -18 -38 5 c-34 4 -37 3 -32 -15 6 -17 1 -19 -62
-20 -37 -1 -57 -4 -43 -6 14 -3 29 -8 33 -12 5 -5 36 -2 70 5 34 7 63 9 65 4
2 -4 13 -6 25 -3 21 4 21 4 3 -11 -16 -13 -17 -16 -4 -21 21 -8 252 24 256 35
2 6 12 15 23 20 15 8 17 7 13 -5 -4 -9 1 -17 10 -21 16 -6 16 -8 1 -24 -15
-17 -15 -19 7 -25 13 -4 31 -14 40 -23 14 -11 21 -12 31 -3 18 14 63 -7 89
-41 15 -21 20 -22 49 -11 20 8 37 9 42 4 5 -5 15 -7 22 -5 17 7 29 -27 13 -38
-10 -6 -9 -8 4 -8 9 0 19 4 22 9 4 5 30 12 59 16 28 4 60 9 69 10 11 3 15 -1
11 -11 -7 -18 6 -18 46 2 17 9 38 13 46 10 23 -9 17 -36 -10 -46 -21 -8 -25
-16 -25 -50 0 -22 5 -40 10 -40 6 0 10 4 10 10 0 16 25 1 35 -23 6 -13 17 -21
28 -19 10 2 17 -3 17 -13 0 -16 -9 -16 -60 3 -13 5 -13 3 -1 -11 17 -22 1 -44
-36 -49 -36 -4 -39 -22 -6 -37 123 -57 167 -91 149 -119 -3 -6 -2 -13 4 -17
11 -7 8 -93 -3 -112 -4 -6 -3 -14 1 -17 18 -11 5 -48 -22 -66 l-28 -18 30 -7
c21 -4 48 1 92 20 49 20 73 25 110 21 35 -4 52 -1 60 9 7 9 30 15 55 15 24 0
62 9 86 20 42 19 109 27 122 14 9 -10 -15 -54 -30 -54 -22 0 -27 -29 -9 -49 9
-10 14 -25 10 -35 -3 -9 -1 -16 5 -16 20 0 11 -18 -29 -60 -22 -23 -40 -44
-40 -46 0 -2 11 -2 24 2 13 3 27 1 30 -5 4 -6 2 -11 -4 -11 -16 0 -100 -88
-100 -105 0 -7 -8 -16 -17 -19 -27 -9 -73 -51 -73 -68 0 -8 -5 -19 -12 -26 -9
-9 -8 -15 8 -27 10 -8 14 -15 7 -15 -7 0 -10 -6 -7 -14 6 -14 -32 -33 -43 -22
-10 10 -43 -26 -43 -46 0 -10 -6 -17 -12 -15 -8 1 -13 -11 -15 -32 -1 -19 -10
-43 -22 -54 l-20 -20 -39 39 c-28 28 -41 51 -46 82 -9 56 -36 59 -36 3 0 -22
5 -41 12 -43 7 -3 11 -27 9 -72 -2 -51 1 -66 10 -60 9 5 10 2 6 -10 -4 -10 -7
-24 -7 -32 0 -10 -7 -13 -23 -9 -19 5 -31 -2 -55 -29 -31 -36 -31 -36 -50 -16
-26 29 -53 17 -46 -20 4 -15 1 -31 -5 -34 -6 -4 -11 -16 -11 -27 0 -10 -4 -19
-10 -19 -5 0 -13 0 -16 0 -4 0 -8 45 -9 101 -2 55 -6 103 -9 106 -3 4 -6 25
-6 48 0 24 -7 62 -15 85 -8 23 -13 46 -10 50 10 16 -13 20 -25 5 -13 -16 -4
-39 11 -29 6 3 8 -9 6 -32 -5 -47 -54 -109 -74 -92 -10 8 -13 5 -13 -11 0 -11
-4 -21 -10 -21 -13 0 -13 37 0 45 6 4 8 10 5 15 -3 5 1 20 8 32 11 18 13 38 7
86 -4 34 -13 68 -19 76 -6 7 -7 17 -3 22 4 4 0 3 -9 -4 -18 -14 -22 -57 -7
-85 7 -14 4 -19 -17 -27 -29 -11 -32 -32 -11 -81 16 -39 24 -158 13 -177 -5
-7 -6 -21 -2 -31 3 -12 0 -21 -10 -25 -8 -3 -15 -12 -15 -21 0 -8 -9 -15 -20
-15 -11 0 -20 -4 -20 -9 0 -5 -12 -16 -26 -26 -33 -21 -74 -13 -74 15 0 11 -4
20 -10 20 -5 0 -10 -4 -10 -9 0 -15 -41 -24 -53 -12 -15 15 -38 14 -34 -1 1
-7 -5 -11 -13 -9 -8 3 -56 4 -107 2 -68 -1 -100 2 -123 14 -16 8 -30 19 -30
23 0 4 -21 7 -47 5 -27 -1 -56 -2 -66 -2 -14 -1 -17 -6 -12 -22 7 -21 5 -21
-50 -14 -51 6 -56 5 -53 -12 2 -12 -2 -17 -14 -15 -10 1 -28 -4 -41 -12 -12
-9 -44 -17 -70 -18 -26 -2 -47 -6 -47 -10 0 -5 -7 -8 -15 -8 -8 0 -15 -9 -15
-20 0 -24 -18 -26 -50 -3 -22 16 -23 16 -17 -1 6 -15 3 -17 -18 -12 -14 4 -25
4 -25 2 0 -7 90 -46 107 -46 8 0 11 -4 8 -10 -3 -5 -38 -8 -78 -6 -40 2 -64 0
-53 -3 10 -4 -58 -19 -163 -35 -99 -16 -187 -26 -195 -23 -8 3 -17 25 -21 49
-4 24 -12 51 -17 62 -7 13 -7 21 1 25 6 4 12 26 14 50 3 37 1 42 -15 38 -22
-6 -22 1 -4 39 8 16 18 42 22 58 6 25 4 28 -10 23 -10 -4 -15 -3 -11 3 3 6 1
10 -4 10 -6 0 -11 7 -11 16 0 9 -6 14 -12 11 -7 -2 -12 -12 -12 -21 2 -18 -4
-20 -25 -7 -10 6 -10 10 -1 16 6 4 15 16 19 27 7 19 7 19 31 0 l24 -20 13 25
c12 24 3 57 -21 74 -5 4 -6 19 -2 33 7 29 -3 108 -13 102 -4 -3 -8 21 -9 52
-3 64 -6 70 -27 52 -12 -10 -15 -10 -15 5 0 9 9 19 20 22 11 3 18 9 15 13 -3
5 -1 11 4 14 5 4 5 22 -1 46 -9 33 -13 38 -25 29 -10 -9 -11 -14 -2 -19 8 -6
8 -9 -1 -15 -7 -4 -16 -2 -20 5 -5 8 -10 4 -15 -12 l-7 -23 -7 24 c-6 21 -8
22 -19 8 -11 -13 -10 -19 8 -37 15 -15 19 -27 13 -43 -10 -28 -7 -85 5 -100 5
-7 9 -43 10 -82 2 -54 -1 -66 -9 -52 -6 10 -8 29 -5 42 4 17 0 30 -15 44 -23
22 -39 19 -39 -5 0 -10 5 -12 12 -8 9 6 9 3 0 -9 -15 -18 -7 -41 10 -31 8 5 9
1 5 -11 -4 -9 -2 -24 4 -31 8 -9 8 -27 1 -61 -9 -40 -8 -45 2 -30 18 24 26 21
26 -9 0 -15 8 -32 17 -39 15 -11 15 -17 6 -36 -7 -13 -12 -37 -11 -53 0 -15
-5 -31 -11 -35 -8 -5 -8 -25 -1 -72 17 -107 16 -150 -4 -161 -13 -8 -15 -13
-5 -24 7 -9 8 -14 1 -14 -6 0 -17 -3 -26 -6 -8 -3 -22 3 -33 15 -9 12 -26 21
-36 21 -15 0 -17 -5 -12 -29 5 -24 2 -29 -17 -35 -40 -10 -50 -7 -43 14 8 26
-9 26 -33 0 -18 -20 -29 -21 -181 -18 l-161 3 0 -2282 0 -2283 3518 0 3517 0
0 153 c0 99 4 162 13 180 24 56 32 17 32 -159 l0 -174 125 0 125 0 0 154 c0
151 11 221 34 213 7 -2 12 -61 14 -185 l2 -182 125 0 125 0 0 165 c0 122 4
175 14 200 28 66 36 41 36 -112 0 -82 3 -172 7 -201 l6 -53 114 3 115 3 -1
172 c-2 132 2 180 13 207 8 20 19 36 24 36 10 0 22 -187 22 -332 0 -52 4 -88
10 -88 7 0 10 153 10 439 l0 439 -37 -4 c-21 -2 -49 -6 -63 -9 -28 -6 -94 -11
-250 -20 -58 -3 -157 -10 -220 -15 -63 -6 -155 -12 -205 -15 -49 -2 -124 -7
-165 -10 -153 -11 -219 -16 -404 -30 -125 -9 -196 -10 -208 -4 -44 24 -10 37
117 43 136 7 411 26 460 31 28 3 91 6 140 6 50 1 119 5 155 10 36 4 110 11
165 15 114 8 121 8 348 19 l167 8 0 68 c0 75 -8 83 -65 67 -16 -5 -69 -8 -116
-7 -48 1 -92 -2 -98 -6 -7 -4 -51 -8 -99 -11 -48 -2 -115 -6 -150 -10 -43 -4
-68 -1 -78 7 -11 9 -20 9 -37 1 -33 -17 -131 -32 -135 -21 -5 12 -39 12 -47
-1 -9 -15 -86 -13 -83 2 4 16 -45 12 -50 -3 -3 -6 -9 -5 -18 2 -11 9 -18 9
-26 1 -7 -7 -26 -12 -43 -12 -18 0 -35 -3 -38 -7 -4 -3 -42 -8 -85 -9 -82 -3
-231 -12 -322 -18 -34 -2 -58 1 -62 8 -6 8 -10 7 -17 -3 -6 -10 -10 -10 -16
-1 -5 9 -9 9 -14 1 -4 -6 -39 -13 -77 -15 -65 -4 -71 -3 -101 24 -40 36 -39
36 127 45 69 4 148 8 175 10 205 15 237 19 250 31 16 16 39 19 30 4 -6 -10 57
-15 67 -4 8 7 122 14 223 14 44 -1 231 9 415 21 184 11 359 21 388 20 29 0 64
4 77 9 l25 10 0 339 c0 226 -4 342 -10 346 -8 5 -7 11 1 21 7 9 8 14 1 14 -6
0 -14 -4 -17 -10 -3 -5 -13 -10 -21 -10 -9 0 -4 10 15 29 l30 30 1 475 0 475
-39 11 c-38 10 -111 24 -176 34 -16 2 -32 5 -34 5 -2 1 4 10 14 21 12 13 28
19 50 17 18 -1 31 -5 29 -8 -2 -4 15 -9 39 -13 23 -3 59 -8 80 -12 l37 -6 0
149 0 150 -82 6 c-46 4 -93 9 -105 13 -37 10 -14 25 30 20 23 -3 68 -8 100
-11 l57 -6 0 75 c0 76 -7 89 -30 61 -18 -21 -101 -31 -114 -13 -6 8 -19 17
-30 21 -13 5 -17 14 -14 32 3 14 5 25 4 26 0 1 -57 5 -126 10 -69 4 -195 14
-280 20 -85 7 -181 9 -212 5 l-57 -7 6 -35 c6 -34 6 -34 -33 -33 -42 0 -96 17
-61 18 25 1 59 43 44 53 -7 4 -50 8 -97 8 -79 0 -86 2 -105 27 -25 30 -49 23
-43 -12 4 -18 -2 -26 -27 -38 -28 -14 -35 -14 -63 0 -23 11 -32 22 -32 39 0
32 -27 31 -41 0 -13 -28 -39 -38 -63 -24 -13 7 -21 5 -31 -8 -20 -28 -1 -54
40 -54 52 0 82 -15 87 -44 6 -32 3 -34 -59 -42 -107 -14 -209 8 -196 41 7 21
-26 26 -45 7 -14 -14 -33 -17 -96 -16 -107 3 -146 11 -140 29 4 9 33 16 92 20
48 4 93 11 101 15 11 6 -217 26 -244 21 -40 -8 -676 -9 -660 -2 11 6 39 10 63
10 24 1 56 8 71 15 25 13 31 13 50 0 18 -13 21 -13 21 -1 0 8 7 21 16 28 14
12 14 14 -3 20 -10 4 -35 8 -55 8 -26 1 -42 7 -50 21 -10 16 -24 20 -65 20
-29 0 -52 -4 -51 -9 2 -5 -1 -9 -7 -9 -5 0 -9 4 -8 8 1 4 -13 11 -32 14 -41 8
-48 17 -39 51 4 17 18 31 40 40 39 16 44 30 13 38 -12 3 -18 10 -15 16 4 5 1
13 -4 16 -6 4 -15 17 -20 29 -7 20 -75 65 -83 56 -6 -8 9 -183 17 -202 12 -27
-23 -35 -176 -40 l-137 -5 -21 26 c-11 15 -30 27 -42 28 -13 1 -32 14 -43 28
-25 30 -39 32 -57 6 -10 -14 -18 -17 -28 -10 -29 18 -70 10 -79 -15 -11 -28
-78 -49 -106 -33 -13 7 -24 6 -36 -2 -33 -20 -119 -10 -119 14 0 11 -6 10 -30
-1 -16 -9 -39 -14 -50 -12 -19 3 -19 3 0 47 22 49 24 100 7 182 -15 68 -6 313
14 379 9 30 14 111 14 245 2 162 5 211 20 255 29 92 9 206 -42 229 -50 23 -90
14 -132 -29 -21 -22 -42 -40 -45 -40 -4 0 -4 16 0 36 l7 36 -33 -17 c-36 -19
-50 -10 -50 31 0 12 -3 41 -6 65 -6 45 7 75 34 81 25 6 87 69 90 91 6 43 7
164 2 310 -4 114 -2 147 8 147 14 0 16 38 3 73 -8 19 -6 27 5 31 8 3 14 9 13
13 -3 20 2 34 10 28 20 -12 22 17 4 38 -32 35 -35 46 -14 40 39 -10 32 19 -16
62 -26 25 -52 45 -56 45 -5 0 -5 5 -2 10 3 6 1 10 -5 10 -7 0 -10 7 -6 15 3 9
-3 19 -15 25 -30 16 -12 33 27 25 33 -6 34 -5 22 20 -6 14 -15 25 -20 25 -4 0
-7 3 -6 8 0 4 -3 15 -7 26 -12 27 6 49 46 57 18 4 35 12 37 18 2 6 11 11 19
11 9 0 13 3 10 6 -3 4 -23 -1 -42 -10 -20 -10 -43 -15 -51 -12 -19 7 -18 75 1
100 8 11 15 30 15 42 0 13 4 25 9 28 14 9 32 66 20 66 -5 0 -13 -10 -18 -23
-8 -20 -41 -57 -41 -45 0 24 26 67 43 73 21 6 21 7 3 14 -14 5 -16 10 -8 15
18 11 16 122 -2 129 -8 3 -17 -1 -20 -9 -3 -8 1 -14 9 -14 9 0 15 -10 15 -25
0 -16 -6 -25 -15 -25 -8 0 -15 -6 -16 -12 0 -7 -4 -4 -9 7 -4 12 -7 36 -5 55
2 19 3 42 4 50 1 13 2 13 11 0 8 -13 9 -13 14 0 16 50 10 100 -9 70 -14 -22
-26 -9 -20 22 6 25 4 30 -8 25 -17 -6 -39 35 -31 58 4 10 0 15 -11 15 -11 0
-15 5 -11 15 3 9 -1 18 -10 22 -8 3 -13 12 -10 20 3 8 2 11 -4 8 -5 -3 -14 12
-21 34 -8 29 -16 38 -27 33 -12 -4 -14 0 -10 16 4 12 2 20 -2 17 -5 -3 -12 1
-17 8 -13 22 -53 32 -53 13 0 -9 -3 -16 -8 -16 -13 0 -33 40 -26 53 4 7 4 9
-1 5 -9 -8 -95 80 -95 96 0 6 5 4 11 -4 9 -13 10 -13 6 0 -2 8 -10 14 -17 12
-6 -1 -21 9 -32 23 -11 14 -24 23 -28 20 -11 -7 -150 122 -150 139 -1 15 -50
74 -50 59 0 -6 5 -15 10 -18 6 -3 10 -14 10 -22 0 -13 -6 -11 -27 9 -16 14
-41 34 -56 43 -16 10 -33 29 -38 42 -5 13 -13 22 -18 18 -5 -3 -12 -1 -15 4
-4 5 -2 12 4 16 5 3 10 13 10 21 0 8 -4 13 -8 10 -5 -3 -20 6 -35 20 -32 30
-40 30 -32 2 4 -14 3 -18 -2 -11 -5 7 -14 9 -20 5 -9 -5 -3 -16 17 -36 56 -52
19 -46 -48 9 -37 30 -76 54 -87 54 -16 -1 -15 -3 8 -12 15 -6 27 -17 27 -24 0
-9 -6 -10 -24 -3 -17 6 -26 5 -28 -2 -4 -12 -92 42 -143 87 l-30 27 -10 -35
-10 -35 -24 19 c-39 32 -57 5 -20 -32 19 -19 19 -20 2 -16 -70 21 -110 30
-120 28 -6 -1 -14 3 -18 9 -3 5 -15 10 -26 10 -13 0 -19 6 -17 18 2 13 -6 18
-37 23 -22 3 -34 7 -27 8 18 2 15 21 -4 21 -8 0 -13 4 -10 9 4 5 23 1 44 -9
98 -47 112 -52 127 -46 17 6 15 33 -3 29 -5 -1 -18 7 -27 17 -10 11 -23 20
-28 20 -6 0 0 -11 13 -25 13 -14 18 -25 12 -25 -7 0 -12 4 -12 10 0 5 -11 12
-25 16 -13 3 -30 13 -37 22 -8 10 -8 13 -1 9 19 -11 42 3 35 21 -3 9 9 2 27
-16 19 -19 40 -31 48 -28 8 3 11 1 8 -4 -3 -6 -1 -11 4 -11 26 -3 30 -4 37
-11 4 -5 16 -8 26 -8 10 0 18 -4 18 -10 0 -5 5 -10 10 -10 17 0 -20 51 -72
101 -35 34 -53 45 -70 42 -13 -2 -44 7 -70 20 -50 25 -58 25 -58 -4 0 -11 13
-22 35 -29 54 -18 55 -33 1 -29 -25 2 -46 1 -46 -4 0 -4 -9 -3 -19 3 -33 17
-47 11 -21 -10 14 -10 21 -22 18 -26 -4 -4 0 -13 10 -21 16 -13 16 -14 -3 -12
-46 3 -76 -2 -70 -11 9 -15 -8 -12 -31 5 -10 8 -27 15 -37 15 -11 0 -21 9 -24
20 -3 11 -9 18 -13 15 -9 -6 -83 34 -88 47 -2 5 -8 6 -13 3 -5 -4 3 -17 19
-30 15 -13 24 -26 20 -30 -4 -4 -17 2 -29 14 -22 20 -34 25 -52 22 -4 -1 -15
5 -23 14 -15 14 -54 21 -54 9 0 -3 15 -12 33 -20 17 -8 43 -22 57 -29 21 -12
22 -15 6 -15 -15 0 -16 -3 -6 -15 10 -12 7 -12 -19 1 -36 18 -41 28 -8 19 17
-6 19 -4 11 5 -6 6 -28 13 -48 14 -20 2 -40 7 -44 11 -4 5 2 5 13 2 17 -6 18
-5 4 5 -8 7 -18 21 -22 31 -3 9 -13 17 -21 17 -26 0 -66 23 -66 37 0 14 10 16
34 7 9 -3 13 -10 10 -15 -3 -5 12 -9 33 -8 l38 1 -32 14 c-18 8 -33 21 -33 29
0 11 -11 15 -40 15 -36 0 -42 4 -62 40 -24 41 -38 51 -38 25 0 -8 4 -15 10
-15 5 0 13 -12 16 -27 4 -16 11 -34 17 -40 7 -10 3 -13 -14 -13 -19 0 -21 -2
-10 -9 9 -6 22 -6 33 0 12 6 18 6 18 -1 0 -5 -7 -10 -15 -10 -8 0 -15 -4 -15
-8 0 -14 61 -72 76 -72 7 0 16 -5 20 -12 5 -8 -2 -9 -26 -4 -40 8 -38 5 31
-39 54 -35 46 -49 -11 -20 -17 9 -32 15 -35 15 -3 -1 -20 11 -38 25 -23 18
-29 27 -19 33 9 6 6 12 -13 22 -14 7 -25 17 -25 22 0 4 -10 8 -22 8 l-23 0 24
-19 c16 -12 20 -21 12 -25 -6 -4 -11 -2 -11 4 0 6 -5 8 -11 5 -6 -4 -16 1 -23
11 -10 13 -22 16 -54 11 -23 -3 -42 -1 -42 4 0 5 7 9 16 9 9 0 12 5 8 11 -5 9
1 10 20 5 15 -4 26 -2 26 4 0 5 -5 10 -11 10 -7 0 -17 8 -24 17 -11 15 -15 15
-29 4 -10 -8 -16 -9 -16 -3 0 17 -53 62 -72 62 -17 0 -58 -36 -58 -51 0 -9 32
-17 48 -11 10 3 8 8 -5 17 -13 10 -15 17 -7 25 7 7 14 3 25 -17 8 -15 25 -38
39 -52 l24 -25 -29 -9 c-24 -8 -31 -6 -45 10 -19 24 -59 47 -67 39 -3 -3 0
-12 6 -20 14 -17 0 -29 -23 -20 -22 9 -20 -6 6 -33 24 -26 14 -30 -16 -8 -14
11 -22 12 -27 4 -5 -8 -17 -6 -40 6 -71 37 -69 37 -70 13 -1 -20 -2 -19 -9 6
-5 16 -7 33 -4 37 2 4 -11 11 -30 15 -39 7 -82 39 -78 58 3 16 -35 56 -54 56
-9 0 -23 -7 -32 -16 -15 -15 -15 -16 4 -10 14 4 27 0 39 -14 16 -18 17 -20 2
-14 -9 3 -17 10 -17 16 0 5 -5 6 -10 3 -16 -10 -50 5 -50 21 0 8 -4 14 -9 14
-17 0 -61 -27 -54 -33 3 -4 -3 -7 -14 -7 -12 0 -23 -7 -27 -15 -3 -8 -13 -15
-23 -15 -17 1 -16 2 1 15 23 17 5 20 -27 4 -19 -9 -18 -7 3 10 16 13 29 16 36
10 7 -6 15 -4 23 4 8 11 2 22 -31 50 -23 21 -37 37 -31 37 6 0 18 -6 25 -12 7
-7 31 -14 52 -15 21 -1 51 -7 66 -13 30 -12 91 -2 97 17 6 16 -66 26 -114 15
-23 -5 -44 -7 -47 -4 -3 2 -16 6 -28 7 -13 1 -27 3 -31 4 -5 0 -6 9 -2 20 4
12 0 21 -12 25 -17 7 -17 8 0 17 18 11 47 -8 47 -30 0 -6 17 -11 39 -11 35 0
39 3 43 30 l4 30 -193 0 c-179 0 -194 -2 -191 -18 2 -9 10 -16 18 -14 11 3 11
0 0 -12 -16 -20 -30 -20 -30 -1 0 8 -7 15 -15 15 -8 0 -15 5 -15 11 0 5 5 7
10 4 5 -3 10 -1 10 4 0 6 -14 11 -30 11 -27 0 -30 -2 -20 -19 13 -24 13 -31 0
-31 -5 0 -12 11 -16 25 -6 25 -28 32 -52 16 -10 -6 -4 -15 22 -35 43 -32 53
-50 60 -102 5 -46 32 -103 52 -111 10 -4 10 -8 1 -18 -10 -10 -15 -9 -25 7 -8
11 -21 17 -28 14 -8 -3 -17 1 -20 9 -4 8 -15 15 -26 15 -17 0 -20 5 -15 28 7
37 -15 118 -38 140 -11 9 -34 27 -50 39 -30 21 -38 22 -443 22 l-412 1 0 -225z
m590 174 c7 -11 9 -23 6 -26 -10 -11 -56 16 -56 32 0 22 38 18 50 -6z m321
-31 c13 -19 11 -28 -6 -28 -8 0 -17 -11 -21 -25 -5 -22 -9 -23 -28 -13 -16 9
-18 12 -6 16 8 3 21 12 29 20 12 12 12 15 0 23 -10 6 -15 4 -17 -7 -3 -14 -6
-13 -23 2 -12 11 -15 20 -9 24 17 10 72 3 81 -12z m139 -40 c32 -44 38 -60 17
-52 -13 5 -62 94 -52 94 3 0 18 -19 35 -42z m130 22 c0 -5 -4 -10 -10 -10 -5
0 -10 5 -10 10 0 6 5 10 10 10 6 0 10 -4 10 -10z m17 -22 c-3 -7 -5 -2 -5 12
0 14 2 19 5 13 2 -7 2 -19 0 -25z m301 14 c2 -7 -6 -12 -17 -12 -21 0 -27 11
-14 24 9 9 26 2 31 -12z m-918 -34 c0 -13 -17 -9 -30 7 -9 11 -9 15 -1 15 7 0
9 6 6 13 -4 6 1 3 9 -7 9 -11 16 -23 16 -28z m45 2 c3 -5 2 -10 -4 -10 -5 0
-13 5 -16 10 -3 6 -2 10 4 10 5 0 13 -4 16 -10z m692 -8 c-9 -2 -15 -7 -12
-12 3 -5 -4 -11 -15 -15 -11 -4 -18 -11 -15 -16 3 -5 -2 -6 -12 -2 -15 5 -14
1 5 -18 19 -21 24 -22 33 -9 9 12 10 12 5 -4 -5 -15 -3 -17 16 -11 13 3 34 8
48 10 14 3 18 2 8 -1 -30 -10 -31 -37 -1 -61 15 -13 27 -30 25 -38 -2 -8 4
-15 12 -15 10 0 13 6 10 15 -4 10 0 15 12 15 15 0 12 5 -11 20 -16 11 -38 20
-47 20 -10 0 -18 5 -18 10 0 6 11 10 25 10 14 0 25 -4 25 -8 0 -8 58 -32 79
-32 6 0 35 -18 64 -40 29 -21 69 -46 90 -55 20 -8 41 -24 47 -34 9 -18 6 -18
-32 4 -44 26 -74 32 -63 15 8 -13 1 -13 -40 4 -33 14 -39 13 -36 -6 0 -5 -8
-8 -19 -8 -13 0 -20 7 -20 19 0 19 -35 39 -47 27 -4 -3 1 -6 10 -6 10 0 17 -5
17 -11 0 -6 -14 -3 -32 8 -24 14 -43 17 -70 13 -20 -4 -42 -3 -49 1 -17 10 0
31 21 24 26 -8 33 9 9 25 -10 8 -19 19 -19 25 0 5 -10 15 -23 21 -137 70 -157
83 -157 110 1 18 1 18 14 2 7 -10 16 -16 19 -13 4 3 5 2 2 -2 -5 -7 44 -43 59
-43 5 0 1 9 -9 20 -10 11 -14 20 -9 20 5 0 2 5 -6 10 -8 5 -10 10 -5 10 6 0
21 -7 34 -16 18 -13 25 -14 34 -4 9 10 9 11 -2 5 -9 -5 -12 -3 -9 6 3 8 12 13
21 11 8 -1 18 2 22 8 3 6 12 7 18 3 8 -5 6 -9 -6 -11z m-749 -49 c-2 -10 -13
-19 -26 -21 -17 -3 -22 2 -22 17 0 16 6 21 26 21 19 0 25 -5 22 -17z m557 -53
c1 -48 -9 -52 -24 -9 -14 41 -14 42 3 36 11 -4 13 -1 9 11 -3 9 -2 13 2 9 5
-4 10 -26 10 -47z m330 0 c14 -15 15 -20 4 -20 -8 0 -20 9 -27 20 -7 11 -8 20
-4 20 5 0 17 -9 27 -20z m-705 0 c0 -5 -5 -10 -11 -10 -5 0 -7 5 -4 10 3 6 8
10 11 10 2 0 4 -4 4 -10z m110 -40 c9 -16 8 -18 -5 -14 -8 4 -15 12 -15 20 0
20 7 17 20 -6z m695 10 c3 -6 -1 -7 -9 -4 -18 7 -21 14 -7 14 6 0 13 -4 16
-10z m-727 -27 c5 -18 -10 -16 -34 2 -18 15 -18 15 5 13 14 -2 26 -9 29 -15z
m202 -15 c0 -13 -23 -5 -28 10 -2 7 2 10 12 6 9 -3 16 -11 16 -16z m565 12 c3
-6 -1 -7 -9 -4 -18 7 -21 14 -7 14 6 0 13 -4 16 -10z m472 -34 c25 5 34 2 39
-10 3 -9 12 -16 19 -16 6 0 20 -10 31 -22 19 -21 19 -21 -1 -13 -11 5 -38 9
-60 10 -22 0 -55 8 -74 18 -18 9 -37 15 -41 12 -9 -6 -35 23 -27 31 3 3 16 0
29 -7 l23 -12 -20 23 -20 22 35 -21 c25 -15 44 -19 67 -15z m-1097 -7 c0 -14
-17 -10 -23 5 -4 10 -1 13 9 9 7 -3 14 -9 14 -14z m950 6 c-14 -17 -30 -20
-30 -6 0 5 8 12 18 14 9 3 19 5 21 6 2 0 -2 -6 -9 -14z m-1513 -15 c3 -10 2
-11 -4 -4 -4 7 -19 14 -33 17 -22 4 -21 5 4 4 17 -1 31 -9 33 -17z m699 -30
c27 -52 84 -107 140 -135 21 -11 44 -24 51 -30 7 -5 18 -15 25 -20 24 -19 78
-37 96 -33 10 3 27 -1 38 -9 17 -12 13 -13 -36 -8 -30 4 -77 11 -104 16 -27 5
-65 9 -85 9 -20 0 -49 7 -65 15 -15 8 -36 15 -45 16 -19 1 -11 4 46 19 l43 11
-60 56 c-33 31 -60 64 -60 73 0 10 -7 23 -15 30 -8 7 -15 19 -15 27 0 26 22 8
46 -37z m-786 30 c0 -5 -5 -10 -11 -10 -5 0 -7 5 -4 10 3 6 8 10 11 10 2 0 4
-4 4 -10z m418 -2 c7 -7 12 -9 12 -5 0 4 9 -1 20 -10 27 -23 25 -43 -3 -43
-16 0 -27 10 -39 35 -16 35 -12 45 10 23z m906 6 c9 -3 16 -10 16 -14 0 -10
-38 -1 -46 11 -6 10 7 12 30 3z m80 -47 c3 -11 15 -21 26 -24 26 -7 26 -23 -1
-23 -21 0 -50 52 -48 87 0 16 1 15 9 -2 5 -11 11 -28 14 -38z m129 28 c20 -8
38 -19 42 -25 3 -5 11 -10 17 -10 6 0 6 6 -2 15 -9 11 -10 19 -3 26 12 12 73
-15 73 -32 0 -6 4 -8 8 -5 5 3 21 -4 38 -15 16 -10 24 -19 19 -19 -6 0 -21 7
-33 16 -12 8 -22 11 -22 6 0 -6 -11 -9 -24 -8 -13 0 -22 5 -19 10 3 4 -3 5
-14 2 -19 -6 -62 8 -113 39 -33 19 -12 19 33 0z m-950 -21 c4 -1 10 -2 15 -3
10 -2 34 -41 24 -41 -4 0 -23 14 -42 31 -19 17 -28 27 -20 22 8 -4 18 -8 23
-9z m1332 -30 c13 -5 14 -8 3 -15 -19 -13 -28 -11 -28 6 0 17 2 18 25 9z m525
-13 c0 -3 16 -15 35 -25 19 -11 35 -23 35 -28 0 -5 -20 5 -44 22 -47 32 -68
54 -42 44 9 -3 16 -9 16 -13z m-334 -19 c-4 -3 -14 2 -24 12 -16 18 -16 18 6
6 13 -6 21 -14 18 -18z m-600 6 c-3 -7 -11 -32 -18 -55 -11 -38 -28 -59 -28
-35 0 22 33 102 42 102 5 0 7 -6 4 -12z m-845 -15 c13 -16 12 -17 -3 -4 -17
13 -22 21 -14 21 2 0 10 -8 17 -17z m2180 -36 c-14 -14 -41 10 -41 36 0 20 1
20 25 -3 16 -15 22 -27 16 -33z m-1111 2 c25 -17 36 -28 26 -25 -19 7 -19 6
-1 -14 31 -34 0 -22 -54 20 -28 22 -51 43 -51 45 0 14 41 1 80 -26z m843 -19
c5 -4 -3 -5 -17 -3 -15 3 -29 10 -32 15 -7 11 36 1 49 -12z m127 -5 c7 -8 8
-15 2 -15 -5 0 -15 7 -22 15 -7 8 -8 15 -2 15 5 0 15 -7 22 -15z m-2071 -35
c5 -16 7 -30 2 -30 -13 0 -47 29 -34 30 7 0 10 7 7 15 -4 8 -2 15 4 15 6 0 15
-13 21 -30z m2438 -6 c-3 -3 -12 -4 -19 -1 -8 3 -5 6 6 6 11 1 17 -2 13 -5z
m-2309 -76 c23 -11 42 -22 42 -24 0 -10 -58 10 -95 33 -47 28 -16 23 53 -9z
m119 16 c-3 -3 -12 -4 -19 -1 -8 3 -5 6 6 6 11 1 17 -2 13 -5z m126 -1 c-13
-2 -33 -2 -45 0 -13 2 -3 4 22 4 25 0 35 -2 23 -4z m2211 -49 c5 -14 4 -15 -9
-4 -17 14 -19 20 -6 20 5 0 12 -7 15 -16z m-2369 -12 c-3 -3 -11 0 -18 7 -9
10 -8 11 6 5 10 -3 15 -9 12 -12z m62 -8 c-3 -3 -12 -4 -19 -1 -8 3 -5 6 6 6
11 1 17 -2 13 -5z m2343 -25 c0 -6 -4 -7 -10 -4 -5 3 -10 11 -10 16 0 6 5 7
10 4 6 -3 10 -11 10 -16z m40 0 c0 -6 -4 -7 -10 -4 -5 3 -10 11 -10 16 0 6 5
7 10 4 6 -3 10 -11 10 -16z m-2165 1 c-3 -5 -12 -7 -20 -3 -21 7 -19 13 6 13
11 0 18 -4 14 -10z m76 -87 c-8 -15 -10 -15 -11 -2 0 17 10 32 18 25 2 -3 -1
-13 -7 -23z m-729 -15 c-7 -7 -12 -8 -12 -2 0 14 12 26 19 19 2 -3 -1 -11 -7
-17z m-5 -70 c-3 -8 -6 -5 -6 6 -1 11 2 17 5 13 3 -3 4 -12 1 -19z m83 -33
c12 7 12 3 4 -20 -6 -14 -8 -14 -27 2 -19 18 -19 17 -12 -7 5 -14 9 -35 11
-48 2 -20 0 -21 -14 -10 -31 24 -62 59 -62 70 0 11 33 -13 57 -42 10 -11 9 -6
-1 20 -7 19 -16 49 -20 65 l-6 30 30 -33 c17 -18 35 -30 40 -27z m-112 0 c-3
-3 -9 2 -12 12 -6 14 -5 15 5 6 7 -7 10 -15 7 -18z m153 -22 c2 -18 0 -34 -5
-35 -10 -3 -16 51 -8 65 6 13 10 5 13 -30z m-181 -8 c0 -8 -4 -15 -10 -15 -5
0 -7 7 -4 15 4 8 8 15 10 15 2 0 4 -7 4 -15z m540 1 c0 -8 3 -23 6 -33 5 -12
4 -15 -3 -8 -16 15 -26 55 -14 55 6 0 11 -6 11 -14z m-529 -67 c11 -11 18 -23
15 -27 -4 -3 -19 6 -34 21 -14 15 -21 27 -14 27 6 0 21 -9 33 -21z m979 -39
c0 -5 -5 -10 -11 -10 -5 0 -7 5 -4 10 3 6 8 10 11 10 2 0 4 -4 4 -10z m-35
-20 c-3 -5 -11 -10 -16 -10 -6 0 -7 5 -4 10 3 6 11 10 16 10 6 0 7 -4 4 -10z
m256 -69 c-13 -11 -20 -24 -17 -30 3 -5 -3 -7 -14 -4 -11 3 -20 7 -20 9 0 8
38 42 51 46 24 9 23 -1 0 -21z m-623 -42 c15 -1 3 -5 -27 -10 -30 -5 -60 -7
-65 -5 -6 2 -1 5 10 5 12 1 28 8 35 17 8 10 15 12 17 5 2 -6 16 -12 30 -12z
m187 1 c3 -5 1 -10 -4 -10 -6 0 -11 5 -11 10 0 6 2 10 4 10 3 0 8 -4 11 -10z
m-650 -48 c-5 -5 -63 26 -69 37 -4 5 12 0 33 -12 22 -12 38 -23 36 -25z m-112
31 c-7 -2 -19 -2 -25 0 -7 3 -2 5 12 5 14 0 19 -2 13 -5z m12 -23 c3 -5 1 -10
-4 -10 -6 0 -11 5 -11 10 0 6 2 10 4 10 3 0 8 -4 11 -10z m333 -27 c-10 -2
-26 -2 -35 0 -10 3 -2 5 17 5 19 0 27 -2 18 -5z m499 1 c-3 -3 -12 -4 -19 -1
-8 3 -5 6 6 6 11 1 17 -2 13 -5z m-937 -13 c0 -5 -9 -7 -20 -4 -11 3 -20 7
-20 9 0 2 9 4 20 4 11 0 20 -4 20 -9z m130 -12 c0 -22 62 -89 83 -89 31 0 11
-14 -24 -16 -24 -2 -28 0 -18 12 9 11 8 15 -5 20 -14 5 -56 63 -56 78 0 3 5 6
10 6 6 0 10 -5 10 -11z m810 -19 c0 -5 -2 -10 -4 -10 -3 0 -8 5 -11 10 -3 6
-1 10 4 10 6 0 11 -4 11 -10z m-893 -66 c-3 -3 -12 -4 -19 -1 -8 3 -5 6 6 6
11 1 17 -2 13 -5z m227 -14 c-21 -8 -37 -3 -29 10 3 4 15 6 27 2 21 -5 21 -6
2 -12z m737 0 c-22 -19 -41 -26 -41 -15 0 5 51 34 60 34 3 0 -6 -9 -19 -19z
m2593 5 c-4 -8 -10 -12 -15 -9 -14 8 -10 24 6 24 9 0 12 -6 9 -15z m-3244 -25
c0 -5 -4 -10 -10 -10 -5 0 -10 5 -10 10 0 6 5 10 10 10 6 0 10 -4 10 -10z m38
-15 c-3 -3 -9 2 -12 12 -6 14 -5 15 5 6 7 -7 10 -15 7 -18z m-81 9 c-3 -3 -12
-4 -19 -1 -8 3 -5 6 6 6 11 1 17 -2 13 -5z m-323 -75 c15 -28 25 -56 23 -62
-2 -7 -18 16 -36 51 -17 34 -27 62 -22 62 5 0 21 -23 35 -51z m-154 31 c0 -5
-5 -10 -11 -10 -5 0 -7 5 -4 10 3 6 8 10 11 10 2 0 4 -4 4 -10z m232 -42 c-7
-7 -12 -8 -12 -2 0 14 12 26 19 19 2 -3 -1 -11 -7 -17z m2275 -75 c-3 -10 -5
-2 -5 17 0 19 2 27 5 18 2 -10 2 -26 0 -35z m1263 1 c-18 -21 -24 -10 -9 18 8
14 14 18 17 10 2 -7 -2 -19 -8 -28z m-3720 2 c0 -2 -7 -6 -15 -10 -8 -3 -15
-1 -15 4 0 6 7 10 15 10 8 0 15 -2 15 -4z m159 -40 c-24 -25 -45 -43 -48 -40
-6 6 70 84 83 84 5 0 -10 -20 -35 -44z m-174 -106 c-3 -5 -11 -10 -16 -10 -6
0 -7 5 -4 10 3 6 11 10 16 10 6 0 7 -4 4 -10z m2165 -106 c0 -10 -6 -14 -14
-11 -7 3 -18 1 -24 -5 -11 -11 -32 -3 -32 12 0 8 22 15 58 19 6 0 12 -6 12
-15z m-80 -38 c0 -3 -4 -8 -10 -11 -5 -3 -10 -1 -10 4 0 6 5 11 10 11 6 0 10
-2 10 -4z m66 -204 c1 -26 6 -62 9 -79 5 -22 3 -33 -4 -33 -6 0 -10 5 -8 11 4
21 -24 21 -30 0 -6 -24 -33 -29 -33 -6 0 8 -7 15 -16 15 -8 0 -13 -4 -9 -9 3
-5 1 -12 -5 -16 -5 -3 -10 -2 -10 4 0 5 -3 17 -7 27 -5 14 -2 16 15 12 15 -4
25 -1 31 10 10 20 3 82 -10 82 -5 0 -9 5 -9 10 0 6 10 10 23 10 12 0 29 4 37
10 20 12 23 7 26 -48z m-2079 -774 c-3 -8 -6 -5 -6 6 -1 11 2 17 5 13 3 -3 4
-12 1 -19z m-19 -79 c-18 -12 -28 -11 -28 2 0 5 4 8 9 5 5 -3 12 6 17 22 8 27
8 27 12 3 2 -13 -2 -28 -10 -32z m3422 -157 c0 -5 -6 -17 -14 -28 -19 -25 -31
-12 -14 15 13 21 28 28 28 13z m-2570 -76 c0 -3 -4 -8 -10 -11 -5 -3 -10 -1
-10 4 0 6 5 11 10 11 6 0 10 -2 10 -4z m-863 -78 c-3 -7 -5 -2 -5 12 0 14 2
19 5 13 2 -7 2 -19 0 -25z m705 -60 c-9 -9 -15 -9 -24 0 -9 9 -7 12 12 12 19
0 21 -3 12 -12z m1078 -48 c0 -5 9 -10 20 -10 11 0 20 -7 20 -15 0 -17 -1 -18
-85 -36 -51 -10 -56 -13 -35 -20 l25 -7 -25 -2 c-24 -2 -23 -3 5 -10 27 -7 27
-8 6 -9 -13 0 -22 -4 -18 -7 3 -3 39 -6 79 -5 90 1 138 -7 138 -25 0 -10 -15
-12 -67 -7 -39 3 -86 0 -111 -6 -50 -14 -114 -66 -95 -79 9 -6 9 -18 2 -49
-11 -41 -11 -41 -31 -21 -14 14 -27 18 -47 13 -25 -5 -29 -3 -33 19 -4 17 1
31 14 43 11 10 26 30 34 45 8 16 21 28 28 28 7 0 18 6 24 13 11 13 9 14 -55
65 -31 24 -33 44 -3 48 13 3 34 11 45 18 28 19 51 23 113 25 29 0 52 -3 52 -9z
m1609 -108 c2 -151 -44 -314 -104 -372 -19 -19 -35 -31 -35 -26 0 4 18 36 39
72 55 92 93 269 85 394 -3 40 -2 49 5 35 5 -11 10 -57 10 -103z m-1384 88 c-3
-5 -11 -10 -16 -10 -6 0 -7 5 -4 10 3 6 11 10 16 10 6 0 7 -4 4 -10z m-1281
-39 c28 -6 26 -8 -40 -38 -38 -18 -79 -33 -91 -33 -11 0 -28 -11 -37 -25 -9
-14 -22 -25 -30 -25 -20 0 -45 -33 -52 -68 -4 -18 -8 -32 -10 -32 -2 0 -29 10
-61 21 -72 27 -98 50 -111 99 l-9 38 71 20 c62 18 130 33 216 46 39 5 122 4
154 -3z m-924 -81 c0 -5 -5 -10 -11 -10 -5 0 -7 5 -4 10 3 6 8 10 11 10 2 0 4
-4 4 -10z m1661 -70 c18 -27 37 -51 44 -54 15 -6 39 -145 32 -189 -6 -39 5
-63 24 -52 8 6 11 4 7 -6 -3 -8 -8 -25 -12 -39 -7 -24 -7 -24 17 5 14 16 35
60 47 98 27 82 63 119 122 129 24 4 71 12 106 18 86 16 93 12 91 -52 -1 -29
-4 -57 -7 -63 -11 -18 0 -79 18 -105 11 -16 19 -54 24 -110 3 -47 9 -115 12
-152 4 -50 2 -74 -10 -97 -9 -17 -14 -31 -11 -31 4 0 -3 -12 -14 -26 -12 -15
-21 -32 -21 -39 0 -20 -27 -39 -32 -23 -4 10 -16 7 -51 -10 -25 -12 -47 -26
-49 -30 -2 -4 -27 -27 -56 -52 l-53 -44 -67 18 c-102 28 -129 30 -158 11 -31
-20 -31 -62 1 -57 75 10 252 -5 283 -24 25 -16 29 -52 7 -60 -12 -5 -13 -10
-4 -20 9 -11 7 -14 -10 -14 -12 0 -21 -6 -21 -16 0 -8 5 -12 10 -9 15 9 12 -4
-4 -20 -12 -12 -15 -12 -20 1 -4 12 -10 13 -26 4 -28 -15 -25 -25 10 -40 29
-12 30 -14 15 -36 -15 -23 -14 -25 10 -34 50 -19 78 -24 71 -11 -4 6 -12 9
-17 6 -5 -4 -9 -1 -9 4 0 11 19 15 51 12 28 -3 41 85 14 95 -12 5 -13 10 -4
20 6 7 8 18 4 24 -3 5 -2 10 3 10 6 0 8 8 5 19 -3 12 3 24 17 34 18 12 28 13
62 2 23 -6 44 -17 46 -23 2 -7 18 -19 35 -27 33 -15 71 -60 43 -49 -10 4 -15
-5 -18 -30 -2 -20 0 -36 5 -36 4 0 5 -5 1 -12 -4 -7 -3 -8 4 -4 6 3 16 -3 22
-14 6 -11 18 -20 28 -20 15 -1 16 -2 1 -13 -10 -7 -15 -23 -13 -40 2 -19 -2
-27 -12 -27 -9 0 -39 -11 -68 -25 -29 -14 -67 -28 -84 -31 -40 -8 -50 -20 -54
-69 -3 -38 -5 -40 -33 -37 -16 2 -34 9 -40 16 -15 18 -62 18 -69 0 -4 -10 -14
-14 -26 -11 -11 3 -20 1 -20 -3 0 -5 -8 -10 -17 -12 -10 -2 18 -13 62 -24 57
-14 91 -18 118 -12 24 5 46 4 59 -3 13 -7 51 -9 111 -4 80 7 89 6 84 -9 -4 -9
0 -19 9 -24 12 -7 10 -11 -11 -22 -18 -10 -25 -22 -26 -44 0 -25 -2 -27 -8
-12 -7 19 -8 19 -15 1 -6 -16 -9 -17 -16 -5 -5 8 -7 22 -5 30 2 8 0 22 -5 30
-8 13 -10 13 -10 -1 0 -9 -7 -19 -15 -23 -8 -3 -15 -13 -15 -22 0 -13 3 -14
15 -4 12 10 15 7 21 -14 7 -31 -1 -46 -26 -46 -10 0 -21 -4 -24 -8 -6 -9 -90
-7 -105 3 -6 3 -11 2 -11 -3 0 -5 -8 -12 -17 -16 -10 -3 -25 -9 -33 -14 -44
-26 -63 -32 -95 -32 -53 0 -125 -20 -162 -46 -28 -19 -30 -24 -18 -34 8 -7 15
-18 15 -25 0 -11 25 -27 64 -39 10 -4 46 0 80 8 125 30 276 38 315 16 26 -13
71 -90 71 -119 0 -12 -5 -32 -12 -44 -7 -12 -13 -26 -14 -32 -1 -5 -5 -23 -9
-39 -6 -23 -5 -27 5 -21 10 6 12 2 6 -16 -18 -63 -18 -79 -4 -79 9 0 15 -13
16 -37 2 -20 7 -42 12 -48 5 -6 10 -34 12 -63 2 -29 6 -52 11 -52 4 0 7 -5 7
-11 0 -6 -8 -8 -19 -4 -13 4 -23 0 -30 -12 -9 -17 -11 -16 -30 6 -13 14 -21
19 -21 11 0 -10 -3 -11 -11 -3 -6 6 -18 9 -25 6 -11 -4 -14 7 -14 50 0 31 -5
59 -11 62 -6 4 -8 13 -5 21 7 18 0 18 -35 -3 -16 -10 -29 -25 -29 -35 0 -10
-7 -21 -15 -24 -8 -4 -13 -10 -10 -14 3 -5 1 -11 -5 -15 -6 -4 -8 -11 -4 -16
3 -6 -4 -21 -16 -34 -16 -17 -21 -31 -16 -49 8 -32 -11 -44 -23 -14 -9 23 -9
23 -21 -7 -11 -28 -10 -46 5 -120 5 -26 4 -27 -4 -7 -6 12 -15 22 -21 22 -5 0
-10 9 -10 19 0 29 -11 51 -25 51 -9 0 -11 -15 -8 -50 2 -33 -1 -57 -11 -73
-14 -21 -14 -23 4 -24 17 -2 20 5 20 45 l0 47 15 -29 c18 -34 19 -58 3 -74 -9
-9 -8 -12 5 -12 13 0 17 -10 18 -42 1 -24 3 -36 6 -27 2 9 15 19 29 22 24 4
26 2 22 -29 -2 -19 0 -34 4 -34 4 0 5 -17 2 -37 l-5 -38 25 30 c19 22 24 24
19 10 -3 -11 -11 -26 -17 -34 -9 -12 -7 -13 12 -9 12 4 22 2 22 -3 0 -5 5 -9
11 -9 6 0 9 7 6 15 -4 8 -1 17 5 21 7 4 8 3 4 -4 -11 -18 15 -14 29 4 10 14
12 8 11 -35 -1 -49 5 -63 19 -41 10 16 25 12 19 -5 -4 -10 0 -15 12 -16 11 0
14 -3 7 -6 -7 -2 -13 -9 -13 -15 0 -6 7 -7 15 -4 9 3 18 -1 21 -9 4 -10 14
-13 31 -9 23 6 24 5 14 -14 -9 -18 -8 -23 9 -32 11 -6 20 -7 20 -3 1 10 18
-19 18 -30 1 -5 7 -14 15 -20 16 -13 32 -67 19 -67 -10 0 -14 -80 -4 -80 4 0
13 -4 21 -9 12 -8 12 -12 -3 -26 -16 -17 -16 -19 6 -42 23 -24 23 -25 3 -39
-20 -15 -20 -16 8 -35 32 -24 35 -39 7 -39 -11 0 -20 -4 -20 -10 0 -5 7 -10
16 -10 9 0 14 -7 12 -17 -2 -10 -11 -18 -20 -18 -9 0 -20 -4 -24 -8 -4 -4 9
-7 29 -7 42 0 43 -4 21 -48 -13 -28 -21 -32 -57 -34 -23 0 -49 0 -57 0 -8 1
-42 4 -75 7 -308 26 -616 115 -815 235 -196 118 -441 375 -520 545 -61 129
-72 193 -69 379 6 307 -2 446 -26 446 -18 0 -58 37 -51 48 3 6 -1 12 -9 16 -8
3 -15 12 -15 20 0 8 -11 26 -25 40 -14 14 -25 35 -25 47 0 17 -3 19 -14 10
-12 -10 -13 -8 -9 8 3 13 0 23 -11 27 -9 3 -13 10 -11 15 8 11 -5 103 -16 120
-8 12 -11 12 -18 -1 -15 -23 -23 -6 -11 24 7 18 7 33 0 46 -5 10 -10 28 -10
39 0 12 -4 21 -10 21 -5 0 -10 14 -10 30 0 17 -4 30 -10 30 -6 0 -6 9 -2 23
11 30 4 55 -17 62 -10 3 -26 14 -36 25 -14 16 -31 20 -76 20 -60 0 -73 7 -63
34 5 13 10 14 20 5 15 -12 60 -8 57 6 -1 6 -10 30 -19 55 -12 34 -15 64 -10
127 5 73 2 95 -25 195 -18 62 -38 122 -45 133 -7 11 -20 51 -29 88 -8 37 -31
95 -50 130 -18 34 -43 91 -55 126 -12 36 -31 83 -42 105 -27 53 -59 148 -53
155 10 10 84 -74 113 -129 31 -58 60 -81 48 -39 -20 74 -21 69 21 69 38 0 39
-1 57 -52 38 -114 120 -248 200 -331 65 -67 215 -128 307 -126 24 0 9 6 -46
19 -78 18 -165 47 -175 60 -3 3 -21 16 -40 27 -19 12 -44 34 -55 49 -11 15
-24 32 -30 38 -52 57 -146 244 -145 290 1 11 12 -6 24 -39 34 -86 82 -170 96
-167 6 1 9 -2 6 -7 -11 -18 117 -161 145 -161 11 0 12 17 0 24 -4 3 -11 20
-15 37 -3 17 -12 45 -20 62 -8 18 -17 48 -20 68 -4 20 -15 54 -26 77 -11 23
-20 47 -20 54 0 7 -16 42 -35 78 -19 36 -37 72 -41 80 -3 8 -12 30 -20 48 -18
42 -18 51 3 74 24 26 49 22 73 -12 12 -16 27 -30 34 -30 7 0 21 -20 31 -45 14
-38 25 -50 66 -71 103 -52 330 -145 454 -185 111 -36 121 -39 165 -44 l45 -6
47 60 c54 69 56 101 7 101 -19 0 -29 5 -29 15 0 8 6 15 13 15 7 0 23 9 35 20
11 11 41 32 66 48 43 28 116 87 116 95 0 3 16 22 35 43 19 21 35 46 35 57 0
30 19 57 35 51 8 -4 29 -28 46 -54z m-1306 0 c-21 -22 -41 -37 -44 -34 -6 6
64 74 76 74 4 0 -10 -18 -32 -40z m-185 5 c19 -23 6 -29 -68 -32 l-67 -3 50
24 c60 29 69 30 85 11z m2077 -27 c-3 -8 -6 -5 -6 6 -1 11 2 17 5 13 3 -3 4
-12 1 -19z m-1166 3 c-19 -12 46 -31 82 -24 28 6 44 -12 28 -31 -7 -9 -7 -16
2 -25 10 -11 9 -13 -3 -9 -8 2 -30 -6 -49 -19 -18 -13 -40 -23 -47 -23 -8 0
-14 -10 -14 -24 0 -32 -11 -38 -46 -27 -16 5 -65 19 -109 31 -89 24 -183 58
-203 73 -10 8 -9 14 4 28 12 13 28 17 63 15 25 -1 65 3 89 10 24 8 75 15 113
18 39 2 73 7 76 10 4 3 11 6 17 6 6 0 5 -4 -3 -9z m698 -99 c0 -11 -2 -12 -6
-4 -2 6 -9 10 -14 6 -10 -6 -12 9 -3 19 10 10 24 -2 23 -21z m21 -27 c0 -9 -6
-12 -16 -8 -13 5 -13 7 -2 14 17 11 18 11 18 -6z m-1493 -107 c-3 -8 -6 -5 -6
6 -1 11 2 17 5 13 3 -3 4 -12 1 -19z m4113 -719 c0 -5 -7 -9 -15 -9 -15 0 -20
12 -9 23 8 8 24 -1 24 -14z m-467 -52 c-3 -15 -11 -26 -17 -24 -15 5 -17 50
-2 59 17 11 25 -4 19 -35z m865 -6 l3 -32 103 7 c73 5 105 3 110 -5 5 -7 -1
-11 -16 -12 -180 -11 -238 -12 -245 -5 -11 10 17 88 30 83 7 -2 13 -18 15 -36z
m2160 -18 c-16 -2 -40 -2 -55 0 -16 2 -3 4 27 4 30 0 43 -2 28 -4z m-3048 -12
c0 -19 -22 -23 -38 -7 -15 15 -14 16 11 16 15 0 27 -4 27 -9z m228 -2 c9 -1 1
-5 -18 -8 -40 -8 -45 -7 -35 9 4 6 14 9 22 6 8 -3 22 -7 31 -7z m-108 -9 c0
-5 -9 -10 -19 -10 -11 0 -23 5 -26 10 -4 6 5 10 19 10 14 0 26 -4 26 -10z
m185 0 c17 -7 15 -9 -12 -9 -18 -1 -33 4 -33 9 0 12 17 12 45 0z m385 -15
c-14 -17 -120 -22 -120 -6 0 13 25 18 84 20 42 1 47 -1 36 -14z m-186 -4 c4
-5 -3 -7 -14 -4 -23 6 -26 13 -6 13 8 0 17 -4 20 -9z m-429 -21 c3 -5 1 -10
-4 -10 -6 0 -11 5 -11 10 0 6 2 10 4 10 3 0 8 -4 11 -10z m505 -40 c0 -5 -22
-7 -52 -3 -72 8 -73 13 -5 13 32 0 57 -4 57 -10z m-636 -15 c-10 -26 25 -29
51 -5 13 12 28 19 34 16 15 -10 7 -49 -10 -54 -8 -2 -23 -7 -34 -12 -66 -27
-83 -18 -61 34 14 34 32 53 20 21z m-3574 -5 c0 -5 -4 -10 -10 -10 -5 0 -10 5
-10 10 0 6 5 10 10 10 6 0 10 -4 10 -10z m5860 -36 c102 -7 145 -20 118 -35
-19 -10 -141 -14 -188 -5 -37 7 -103 14 -132 15 -11 1 -18 9 -18 21 0 19 5 20
63 16 34 -2 105 -8 157 -12z m-2130 -9 c0 -8 -4 -15 -9 -15 -13 0 -22 16 -14
24 11 11 23 6 23 -9z m2335 -16 c-4 -5 -21 -9 -38 -8 l-32 1 30 13 c31 13 50
11 40 -6z m-2030 -19 c3 -5 -1 -10 -9 -10 -9 0 -16 5 -16 10 0 6 4 10 9 10 6
0 13 -4 16 -10z m205 -20 c0 -5 -4 -10 -10 -10 -5 0 -10 5 -10 10 0 6 5 10 10
10 6 0 10 -4 10 -10z m280 -10 c-20 -13 -40 -13 -40 0 0 6 12 10 28 10 21 0
24 -2 12 -10z m87 -6 c-3 -3 -12 -4 -19 -1 -8 3 -5 6 6 6 11 1 17 -2 13 -5z
m354 -70 c3 -38 9 -83 13 -100 6 -21 4 -34 -4 -39 -18 -11 -30 16 -24 52 4 22
-1 46 -16 77 -17 36 -19 49 -10 66 20 37 35 16 41 -56z m172 5 c67 3 152 -28
132 -48 -12 -12 -142 4 -162 20 -7 7 -28 9 -46 6 -36 -6 -74 8 -47 17 8 2 22
7 30 10 8 3 24 2 35 -1 11 -3 37 -5 58 -4z m-1064 -62 c14 -36 2 -170 -16
-180 -11 -7 -14 -28 -13 -85 2 -132 -2 -151 -25 -132 -9 7 -13 21 -10 31 3 9
1 20 -5 24 -10 6 -14 -6 -11 -37 1 -9 -3 -19 -9 -23 -7 -4 -8 -24 -4 -55 7
-54 -1 -104 -16 -95 -5 3 -29 0 -55 -6 -34 -9 -49 -9 -59 0 -13 11 -54 9 -133
-5 -31 -6 -46 7 -23 21 5 3 6 13 3 21 -4 11 0 15 13 14 37 -4 64 0 64 10 0 6
-6 10 -14 10 -8 0 -17 4 -21 10 -9 15 76 34 97 21 12 -8 19 -8 24 0 4 7 24 9
50 6 34 -3 44 -1 44 10 0 7 -10 17 -22 22 l-23 8 23 7 c25 8 31 46 7 46 -8 0
-15 -5 -15 -11 0 -6 -10 -9 -22 -7 -32 4 -25 22 12 29 17 4 33 8 35 11 2 2 6
38 8 80 2 54 8 81 20 93 12 11 17 33 17 69 0 35 5 58 15 66 8 7 12 16 9 21 -8
14 5 29 27 29 11 0 23 -10 28 -23z m455 -62 c-14 -11 -33 -13 -72 -9 -33 4
-57 2 -66 -5 -10 -9 -16 -8 -26 4 -10 12 -9 15 6 16 111 6 158 10 163 14 2 3
7 3 9 0 3 -3 -3 -12 -14 -20z m396 0 c0 -26 -14 -33 -25 -15 -9 14 1 40 15 40
5 0 10 -11 10 -25z m1622 -57 c-8 -8 -17 -8 -34 0 -22 10 -21 11 12 11 26 1
31 -2 22 -11z m-1455 -40 c-3 -8 -6 -5 -6 6 -1 11 2 17 5 13 3 -3 4 -12 1 -19z
m-267 -8 c0 -5 -9 -10 -21 -10 -11 0 -17 5 -14 10 3 6 13 10 21 10 8 0 14 -4
14 -10z m40 0 c0 -5 -8 -10 -17 -10 -15 0 -16 2 -3 10 19 12 20 12 20 0z
m-757 -89 c3 -39 3 -88 -1 -108 l-6 -38 -7 30 c-10 44 -10 197 0 191 4 -3 11
-37 14 -75z m757 60 c0 -6 -4 -12 -9 -15 -13 -8 -42 4 -35 15 7 12 44 12 44 0z
m315 -21 c-3 -5 -12 -10 -18 -10 -7 0 -6 4 3 10 19 12 23 12 15 0z m218 -15
c4 -8 2 -17 -2 -20 -5 -2 -11 4 -14 15 -6 23 8 27 16 5z m-338 -5 c-3 -5 -10
-10 -16 -10 -5 0 -9 5 -9 10 0 6 7 10 16 10 8 0 12 -4 9 -10z m-1540 -7 c15
-5 15 -8 -6 -24 -20 -15 -21 -19 -10 -33 13 -15 8 -21 -13 -17 -4 1 -24 -3
-43 -10 -25 -8 -37 -8 -44 0 -5 6 -6 9 -3 6 7 -4 34 19 34 30 0 3 -8 5 -17 3
-11 -2 -18 3 -18 12 0 10 8 14 22 12 12 -2 35 4 50 12 34 18 28 17 48 9z
m1845 -33 c0 -5 -4 -10 -10 -10 -5 0 -10 5 -10 10 0 6 5 10 10 10 6 0 10 -4
10 -10z m-1775 -10 c4 -6 15 -8 25 -5 10 3 21 1 25 -5 4 -6 13 -9 21 -6 8 3
14 1 14 -3 0 -15 -23 -19 -52 -9 -18 6 -34 6 -48 -2 -26 -14 -34 -8 -25 19 7
22 29 28 40 11z m1680 0 c-3 -5 -12 -7 -20 -3 -21 7 -19 13 6 13 11 0 18 -4
14 -10z m-1460 -60 c4 -6 -7 -10 -24 -10 -17 0 -31 5 -31 10 0 6 11 10 24 10
14 0 28 -4 31 -10z m438 -20 c4 -17 9 -19 32 -10 38 14 65 12 65 -5 0 -14 37
-35 61 -35 18 0 9 21 -13 29 -17 6 -5 9 42 8 36 0 68 -1 72 -4 14 -7 -4 -33
-24 -33 -34 0 -10 -17 33 -23 48 -6 72 -25 60 -46 -6 -9 -15 -11 -27 -6 -11 5
-22 8 -26 7 -43 -9 -89 -14 -115 -14 -36 1 -40 -5 -20 -33 12 -15 19 -16 45
-7 18 6 32 8 32 5 0 -16 -36 -43 -57 -43 -29 0 -30 -14 -2 -34 l22 -15 -26 -7
c-15 -3 -24 -10 -21 -15 3 -5 -5 -9 -17 -9 -20 0 -21 2 -7 18 19 23 21 62 2
62 -8 0 -14 -4 -14 -10 0 -5 -7 -10 -15 -10 -20 0 -19 -17 1 -28 13 -7 10 -12
-19 -25 -51 -25 -58 -22 -54 20 3 31 9 39 35 47 32 11 69 51 55 59 -10 6 -128
-9 -142 -17 -16 -10 -26 22 -12 38 9 10 8 15 -2 19 -13 5 -15 24 -8 99 0 10 7
15 15 12 7 -3 16 2 19 10 9 22 24 20 30 -4z m47 16 c0 -3 -4 -8 -10 -11 -5 -3
-10 -1 -10 4 0 6 5 11 10 11 6 0 10 -2 10 -4z m-477 -50 c4 -10 1 -13 -9 -9
-7 3 -14 9 -14 14 0 14 17 10 23 -5z m732 4 c3 -5 -1 -10 -9 -10 -9 0 -16 5
-16 10 0 6 4 10 9 10 6 0 13 -4 16 -10z m295 -10 c-19 -13 -30 -13 -30 0 0 6
10 10 23 10 18 0 19 -2 7 -10z m-1353 -26 c-3 -3 -12 -4 -19 -1 -8 3 -5 6 6 6
11 1 17 -2 13 -5z m1341 -36 c20 -17 14 -31 -12 -24 -14 3 -27 2 -30 -2 -9
-15 -157 -7 -167 9 -5 8 -9 10 -9 6 0 -5 -5 -5 -12 -1 -17 10 21 23 49 17 12
-3 31 2 43 10 16 11 31 12 73 5 28 -6 58 -14 65 -20z m-798 -20 c0 -25 -3 -29
-10 -18 -13 20 -13 50 0 50 6 0 10 -15 10 -32z m-420 -17 c0 -14 -18 -23 -30
-16 -6 4 -8 11 -5 16 8 12 35 12 35 0z m1850 -17 c0 -8 -10 -14 -25 -14 -23 0
-34 18 -19 32 10 10 44 -4 44 -18z m-250 6 c0 -5 -10 -18 -22 -30 l-22 -20 55
-2 c30 -1 75 0 101 1 39 2 46 0 45 -16 -2 -13 4 -17 19 -15 12 1 27 -4 34 -13
7 -8 24 -15 38 -15 24 0 24 -1 8 -19 -9 -10 -14 -25 -10 -34 4 -12 -1 -20 -17
-26 -32 -11 -46 -5 -54 26 -7 31 0 40 20 23 9 -7 18 -10 22 -6 10 10 -29 35
-54 36 -14 0 -23 -6 -23 -15 0 -10 -11 -15 -35 -15 -19 0 -35 4 -35 9 0 18
-30 20 -47 3 -16 -16 -14 -18 33 -28 48 -11 47 -16 -8 -28 -20 -5 -25 -10 -21
-26 4 -15 0 -20 -17 -20 -17 0 -20 4 -15 20 6 18 2 20 -39 20 -35 0 -49 -5
-58 -19 -11 -19 -14 -19 -39 -4 -23 14 -30 14 -43 3 -14 -11 -20 -9 -41 12
l-25 25 37 5 c21 3 68 4 106 3 47 -1 67 1 67 10 0 15 -38 21 -150 24 -46 1
-87 4 -91 7 -4 2 -10 -4 -13 -13 -4 -10 -1 -20 8 -25 8 -5 13 -15 10 -23 -9
-22 -58 -28 -97 -11 -20 8 -38 12 -40 9 -3 -2 -34 2 -69 11 -34 8 -72 17 -83
20 -11 2 5 4 35 4 30 0 69 3 86 7 21 5 35 2 45 -7 20 -20 47 -29 54 -18 4 6 1
10 -6 10 -8 0 -8 4 -2 13 6 6 13 27 16 45 6 30 5 32 -18 26 -23 -6 -81 -8
-132 -5 -13 0 -23 6 -23 12 0 6 7 8 16 5 19 -7 41 3 26 13 -7 4 -8 12 -1 21 8
13 10 13 18 0 9 -12 15 -13 48 -1 33 12 101 23 143 22 53 0 102 -7 108 -16 8
-12 58 -35 75 -35 7 0 13 9 14 20 1 11 8 26 15 34 15 17 48 21 48 6z m67 4
c-3 -3 -12 -4 -19 -1 -8 3 -5 6 6 6 11 1 17 -2 13 -5z m-1754 -11 c-7 -2 -19
-2 -25 0 -7 3 -2 5 12 5 14 0 19 -2 13 -5z m131 -12 c6 -8 -55 -28 -104 -33
-17 -2 -26 -10 -28 -25 -3 -17 -12 -24 -40 -28 -20 -3 -45 -8 -54 -10 -10 -2
-18 1 -18 5 0 4 -10 6 -22 2 -14 -3 -19 -2 -14 6 4 7 16 12 27 12 22 0 22 0
10 33 -8 19 -6 27 5 31 8 3 17 -1 19 -9 3 -8 7 -22 10 -30 2 -8 14 -15 26 -15
16 0 20 5 16 20 -8 31 17 43 73 36 32 -4 50 -3 50 4 0 12 37 14 44 1z m3556
-1 c0 -5 -9 -10 -20 -10 -11 0 -20 5 -20 10 0 6 9 10 20 10 11 0 20 -4 20 -10z
m-2625 -30 c-3 -5 -10 -10 -16 -10 -5 0 -9 5 -9 10 0 6 7 10 16 10 8 0 12 -4
9 -10z m840 -10 c7 -12 -2 -12 -30 0 -19 8 -19 9 2 9 12 1 25 -3 28 -9z
m-1497 -13 c8 -17 -6 -26 -50 -32 -38 -6 -48 -4 -48 7 0 8 5 19 11 25 12 12
82 12 87 0z m689 7 c-3 -3 -12 -4 -19 -1 -8 3 -5 6 6 6 11 1 17 -2 13 -5z m63
-4 c0 -5 -2 -10 -4 -10 -3 0 -8 5 -11 10 -3 6 -1 10 4 10 6 0 11 -4 11 -10z
m1342 -12 c-10 -10 -62 -1 -62 11 0 4 16 5 36 3 22 -3 32 -8 26 -14z m-222 2
c0 -5 -4 -10 -10 -10 -5 0 -10 5 -10 10 0 6 5 10 10 10 6 0 10 -4 10 -10z
m-2135 -8 c18 -13 14 -42 -6 -42 -10 0 -19 5 -19 10 0 6 -9 10 -20 10 -11 0
-20 4 -20 9 0 17 47 27 65 13z m2505 4 c0 -11 -19 -15 -25 -6 -3 5 1 10 9 10
9 0 16 -2 16 -4z m-2400 -37 c0 -15 -30 -23 -42 -11 -6 6 -7 15 -4 20 7 12 46
4 46 -9z m2790 -4 c0 -9 -9 -15 -22 -15 -22 1 -23 1 -4 15 25 19 26 19 26 0z
m-2335 -25 c-6 -9 -9 -9 -16 1 -10 17 0 34 13 21 6 -6 7 -16 3 -22z m-799 1
c21 -17 22 -19 6 -23 -12 -3 -22 3 -29 18 -13 29 -9 30 23 5z m1085 -7 c9 -11
8 -14 -2 -15 -8 -1 -23 -2 -34 -3 -26 -1 -46 16 -34 30 11 14 55 6 70 -12z
m-1216 0 c13 -6 14 -9 3 -16 -10 -7 -10 -11 0 -15 17 -7 15 -32 -3 -39 -14 -6
-13 -8 1 -19 24 -17 26 -43 3 -55 -12 -7 -19 -21 -19 -40 0 -17 -4 -30 -10
-30 -11 0 -14 202 -3 213 8 8 8 8 28 1z m75 -9 c0 -8 -4 -15 -10 -15 -5 0 -10
7 -10 15 0 8 5 15 10 15 6 0 10 -7 10 -15z m2320 6 c0 -12 -20 -25 -27 -18 -7
7 6 27 18 27 5 0 9 -4 9 -9z m-1033 -17 c-3 -3 -12 -4 -19 -1 -8 3 -5 6 6 6
11 1 17 -2 13 -5z m1434 -14 c-8 -4 -21 -5 -30 -2 -12 5 -10 8 9 12 29 8 40 3
21 -10z m-147 -5 c20 -15 20 -15 0 -15 -30 0 -64 11 -64 21 0 14 43 10 64 -6z
m-2568 -22 c-2 -3 -14 -2 -27 2 -16 6 -18 9 -8 16 13 7 45 -9 35 -18z m1301
-17 c2 -1 -9 -9 -24 -17 -20 -11 -27 -11 -30 -1 -3 6 -19 12 -36 12 -24 0 -28
3 -17 10 12 7 99 4 107 -4z m-897 -6 c0 -5 -6 -10 -14 -10 -8 0 -16 -6 -19
-12 -4 -10 -7 -10 -18 0 -11 10 -10 12 4 12 9 0 17 5 17 10 0 6 7 10 15 10 8
0 15 -4 15 -10z m2663 3 c-7 -2 -19 -2 -25 0 -7 3 -2 5 12 5 14 0 19 -2 13 -5z
m284 -7 c3 -3 -3 -6 -15 -6 -15 0 -24 -8 -28 -25 -5 -21 -11 -24 -46 -21 -56
5 -69 29 -20 39 20 4 41 12 45 16 10 10 54 8 64 -3z m-1314 -3 c-7 -2 -19 -2
-25 0 -7 3 -2 5 12 5 14 0 19 -2 13 -5z m206 -4 c20 1 21 -1 11 -14 -14 -17
-76 -20 -86 -4 -3 6 -16 8 -28 4 -11 -3 -28 -7 -36 -10 -8 -2 -23 -6 -32 -10
-18 -7 -22 2 -12 28 4 11 21 13 82 10 42 -2 88 -4 101 -4z m341 -9 c0 -5 -9
-6 -20 -3 -11 3 -20 9 -20 13 0 5 9 6 20 3 11 -3 20 -9 20 -13z m210 13 c0 -3
-6 -14 -13 -22 -12 -13 -12 -20 -1 -41 l14 -25 0 28 c0 15 2 27 4 27 18 0 39
-17 47 -36 4 -13 15 -24 24 -24 8 0 15 -5 15 -11 0 -6 -18 -9 -47 -8 -64 4
-58 -13 10 -27 29 -6 58 -14 65 -18 6 -4 19 2 29 14 23 27 53 26 53 -1 0 -19
5 -21 40 -17 22 2 40 0 40 -4 0 -5 13 -8 29 -8 29 0 29 0 15 -30 -17 -32 -52
-40 -76 -17 -7 7 -23 12 -35 11 -13 -1 -23 2 -23 7 0 4 -22 7 -50 6 -27 -1
-50 -5 -50 -9 0 -5 -12 -8 -26 -8 -17 0 -28 7 -31 18 -6 25 -48 48 -101 56
-58 9 -72 -3 -28 -23 l36 -16 -22 -25 c-20 -22 -32 -25 -95 -27 -46 -2 -77 2
-85 10 -7 6 -18 13 -23 14 -6 1 -19 5 -30 9 -17 7 -18 6 -7 -8 11 -13 6 -17
-35 -28 -27 -6 -74 -12 -105 -11 -32 0 -58 -4 -58 -9 0 -10 12 -12 95 -14 103
-4 125 -7 125 -16 0 -5 -9 -10 -20 -10 -13 0 -18 -5 -14 -15 4 -10 0 -15 -14
-15 -12 0 -24 -5 -27 -11 -9 -14 -30 -6 -30 12 0 9 -13 15 -32 17 -23 2 -33
-1 -33 -11 0 -22 -39 -35 -120 -42 -93 -8 -120 -21 -64 -30 59 -10 61 -12 30
-24 -46 -18 -448 -19 -454 -1 -5 14 -36 12 -50 -2 -9 -9 -20 -9 -45 -1 -27 10
-97 22 -157 28 -8 0 -45 10 -82 20 -70 20 -98 45 -52 45 13 0 27 -7 30 -15 14
-34 90 0 82 36 -2 11 8 13 47 10 44 -3 48 -2 36 13 -12 14 -10 16 15 16 59 1
179 12 194 17 8 4 44 7 80 8 36 1 73 5 83 9 15 7 18 5 15 -10 -4 -23 19 -28
78 -19 27 4 44 11 44 19 0 16 51 28 63 16 5 -4 -6 -13 -25 -19 -26 -9 -30 -14
-18 -21 8 -5 30 -10 48 -10 32 0 43 -14 20 -23 -7 -3 2 -6 20 -6 26 -1 35 4
39 19 3 11 20 24 39 30 31 11 47 30 24 30 -5 0 -10 6 -10 14 0 10 -25 15 -95
19 -121 7 -137 3 -124 -30 9 -24 8 -24 -39 -21 -40 3 -47 6 -44 22 3 15 -1 18
-17 13 -12 -3 -19 -1 -16 3 9 15 -30 16 -41 1 -8 -10 -32 -15 -75 -16 -35 -1
-76 -5 -91 -9 -22 -6 -28 -5 -28 7 0 25 -20 31 -40 12 -21 -19 -53 -8 -64 21
-9 23 11 44 23 25 12 -19 78 -18 93 1 14 17 80 29 173 32 146 5 145 5 145 24
0 10 -11 28 -25 40 -14 13 -23 27 -20 32 8 13 55 13 55 -1 0 -6 -9 -8 -22 -4
-17 4 -19 3 -8 -3 8 -6 34 -13 58 -17 26 -4 42 -12 42 -21 0 -8 10 -14 26 -14
20 0 24 4 19 19 -4 12 0 21 11 25 13 5 15 2 11 -15 -5 -17 -2 -20 14 -15 10 3
28 9 39 12 13 4 20 2 20 -6 0 -18 -31 -39 -57 -40 -13 0 -23 -4 -23 -10 0 -5
30 -10 68 -12 66 -3 67 -3 65 -30 -2 -36 32 -40 41 -4 5 21 12 24 88 29 46 4
115 7 153 7 80 0 117 14 63 23 -18 4 -48 3 -67 -1 -48 -11 -111 -3 -111 14 0
10 16 13 61 13 34 -1 64 3 68 9 9 14 51 25 51 14 0 -6 -6 -13 -12 -15 -7 -3 5
-3 27 0 22 4 43 10 46 16 4 5 9 5 13 -2 12 -18 23 -13 30 14 7 28 76 72 76 48z
m-419 -13 c11 0 19 -5 19 -11 0 -5 -4 -8 -9 -4 -5 3 -12 1 -16 -5 -4 -6 -11
-7 -17 -4 -7 4 -8 2 -4 -5 4 -6 12 -9 17 -5 6 3 21 3 35 0 24 -6 24 -7 7 -31
-19 -26 -36 -33 -28 -12 4 9 -9 11 -50 9 -35 -3 -55 0 -55 7 0 6 6 11 14 11 7
0 19 7 26 15 10 12 10 15 -4 15 -9 0 -16 7 -16 16 0 13 7 15 31 10 17 -3 40
-6 50 -6z m1056 -10 c-29 -23 -57 -26 -57 -6 0 17 15 24 54 25 l29 1 -26 -20z
m-3180 4 c-3 -3 -12 -4 -19 -1 -8 3 -5 6 6 6 11 1 17 -2 13 -5z m2914 -16 c13
-19 11 -30 -3 -22 -7 5 -31 9 -53 9 -109 4 -115 5 -115 19 0 20 158 14 171 -6z
m-1295 2 c13 0 24 -4 24 -10 0 -5 -11 -10 -24 -10 -13 0 -26 -5 -28 -11 -2 -6
-27 -9 -63 -7 l-60 3 35 22 c23 14 45 21 64 18 16 -3 39 -5 52 -5z m1902 0
c-10 -6 -25 -7 -40 -1 -20 9 -18 10 17 10 31 0 36 -2 23 -9z m-1091 -11 c-14
-8 -22 -8 -30 0 -8 8 -3 11 19 11 25 -1 27 -2 11 -11z m-982 -5 c13 -5 14 -8
3 -15 -17 -11 -68 -12 -68 -1 0 21 31 29 65 16z m1885 -14 c0 -5 -7 -7 -15 -4
-8 4 -15 8 -15 10 0 2 7 4 15 4 8 0 15 -4 15 -10z m170 0 c0 -5 -4 -10 -10
-10 -5 0 -10 5 -10 10 0 6 5 10 10 10 6 0 10 -4 10 -10z m57 -6 c-3 -3 -12 -4
-19 -1 -8 3 -5 6 6 6 11 1 17 -2 13 -5z m-840 -10 c33 -9 18 -24 -24 -24 -30
0 -34 2 -23 15 14 17 16 17 47 9z m-2949 -22 c3 -9 -2 -13 -14 -10 -9 1 -19 9
-22 16 -3 9 2 13 14 10 9 -1 19 -9 22 -16z m2245 1 c-7 -2 -19 -2 -25 0 -7 3
-2 5 12 5 14 0 19 -2 13 -5z m943 -53 c33 -13 26 -22 -21 -26 -23 -2 -35 1
-35 10 0 27 15 31 56 16z m-2206 -30 c-8 -5 -21 -5 -32 1 -10 6 -23 7 -28 4
-6 -4 -29 -8 -52 -11 -67 -6 -31 14 42 24 65 8 99 0 70 -18z m-1080 -1 c0 -5
-5 -9 -11 -9 -5 0 -7 -5 -3 -11 4 -8 0 -8 -15 0 -21 12 -26 23 -15 33 8 8 44
-3 44 -13z m130 11 c0 -5 -9 -10 -20 -10 -11 0 -20 5 -20 10 0 6 9 10 20 10
11 0 20 -4 20 -10z m1200 1 c0 -12 -26 -22 -35 -13 -3 3 -23 5 -43 4 -28 -2
-33 0 -22 7 18 13 100 14 100 2z m55 -1 c-3 -5 -12 -10 -20 -10 -8 0 -17 5
-20 10 -4 6 5 10 20 10 15 0 24 -4 20 -10z m52 4 c-3 -3 -12 -4 -19 -1 -8 3
-5 6 6 6 11 1 17 -2 13 -5z m98 -34 c-3 -5 -13 -10 -21 -10 -8 0 -12 5 -9 10
3 6 13 10 21 10 8 0 12 -4 9 -10z m95 -5 c0 -16 -20 -19 -57 -9 -37 10 -26 24
17 24 29 0 40 -4 40 -15z m-1376 -14 c3 -5 -1 -11 -9 -15 -15 -6 -29 7 -18 18
9 9 21 8 27 -3z m326 2 c0 -17 -19 -35 -29 -29 -18 12 -12 36 9 36 11 0 20 -3
20 -7z m3210 -3 c0 -5 -8 -10 -17 -10 -15 0 -16 2 -3 10 19 12 20 12 20 0z
m77 4 c-3 -3 -12 -4 -19 -1 -8 3 -5 6 6 6 11 1 17 -2 13 -5z m-3857 -25 c0 -6
-4 -8 -9 -4 -5 3 -12 1 -16 -5 -7 -11 -25 -4 -25 10 0 9 31 19 43 13 4 -2 7
-9 7 -14z m158 4 c-10 -2 -26 -2 -35 0 -10 3 -2 5 17 5 19 0 27 -2 18 -5z
m3849 1 c-3 -3 -12 -4 -19 -1 -8 3 -5 6 6 6 11 1 17 -2 13 -5z m-2517 -51 c0
-16 -137 -18 -160 -2 -11 8 -7 9 18 5 36 -6 75 6 100 30 14 15 17 15 29 -2 7
-10 13 -24 13 -31z m-503 31 c-3 -3 -12 -4 -19 -1 -8 3 -5 6 6 6 11 1 17 -2
13 -5z m-472 -23 c17 -7 16 -9 -9 -15 -31 -8 -42 -3 -31 13 7 12 12 13 40 2z
m661 0 c-5 -8 32 -49 40 -43 2 1 18 2 35 2 27 0 30 -2 19 -15 -14 -17 -60 -20
-60 -4 0 5 -13 15 -30 20 -28 10 -38 28 -23 42 9 10 25 8 19 -2z m44 -1 c0 -5
-7 -10 -16 -10 -8 0 -12 5 -9 10 3 6 10 10 16 10 5 0 9 -4 9 -10z m1652 -1 c3
-8 10 -8 26 2 17 11 28 11 55 1 37 -13 111 -16 104 -4 -3 4 47 6 111 6 91 -1
126 -6 157 -20 l40 -19 -78 -3 c-57 -2 -79 -7 -84 -17 -6 -17 -40 -20 -45 -4
-7 22 -257 29 -350 10 -38 -8 -68 -9 -90 -2 l-33 9 30 1 c17 1 47 4 68 7 36 6
37 8 21 25 -16 18 -15 19 24 19 22 0 42 -5 44 -11z m-3952 -20 c0 -5 -4 -9
-10 -9 -5 0 -10 7 -10 16 0 8 5 12 10 9 6 -3 10 -10 10 -16z m3740 -4 c3 -6
-12 -11 -34 -13 -43 -4 -70 4 -62 17 7 11 90 8 96 -4z m-2223 -1 c-3 -3 -12
-4 -19 -1 -8 3 -5 6 6 6 11 1 17 -2 13 -5z m2978 -4 c-3 -5 -13 -10 -21 -10
-8 0 -14 5 -14 10 0 6 9 10 21 10 11 0 17 -4 14 -10z m-3329 -19 c25 4 38 -1
27 -12 -13 -13 -75 9 -66 24 2 4 11 3 18 -3 7 -6 17 -10 21 -9z m244 9 c-19
-13 -30 -13 -30 0 0 6 10 10 23 10 18 0 19 -2 7 -10z m700 0 c13 -9 13 -10 0
-10 -8 0 -22 5 -30 10 -13 9 -13 10 0 10 8 0 22 -5 30 -10z m2667 -6 c-3 -3
-12 -4 -19 -1 -8 3 -5 6 6 6 11 1 17 -2 13 -5z m-3489 -16 c-5 -15 -33 -22
-54 -14 -24 9 -6 26 27 26 20 0 29 -4 27 -12z m2838 1 c3 -6 17 -8 30 -5 15 4
24 2 24 -5 0 -15 -116 -7 -132 9 -9 9 -3 12 29 12 23 0 45 -5 49 -11z m-491
-9 c-3 -5 -11 -10 -16 -10 -6 0 -7 5 -4 10 3 6 11 10 16 10 6 0 7 -4 4 -10z
m60 -20 c-3 -5 -13 -10 -21 -10 -8 0 -12 5 -9 10 3 6 13 10 21 10 8 0 12 -4 9
-10z m76 -5 c0 -16 -28 -17 -34 -2 -3 9 1 14 14 13 11 -1 19 -5 20 -11z m894
5 c3 -5 -3 -10 -15 -10 -12 0 -18 5 -15 10 3 6 10 10 15 10 5 0 12 -4 15 -10z
m-5145 -28 c0 -15 -2 -15 -10 -2 -13 20 -13 33 0 25 6 -3 10 -14 10 -23z
m2830 18 c0 -5 -7 -7 -15 -4 -8 4 -15 8 -15 10 0 2 7 4 15 4 8 0 15 -4 15 -10z
m2265 0 c-3 -5 -16 -10 -28 -10 -18 0 -19 2 -7 10 20 13 43 13 35 0z m135 6
c0 -11 -19 -15 -25 -6 -3 5 1 10 9 10 9 0 16 -2 16 -4z m-275 -26 c-9 -10 -29
-19 -44 -18 -14 0 -56 -2 -93 -5 -41 -4 -68 -2 -68 3 0 6 19 10 43 10 24 0 52
7 63 15 10 8 41 15 68 15 48 0 49 0 31 -20z m522 14 c-3 -3 -12 -4 -19 -1 -8
3 -5 6 6 6 11 1 17 -2 13 -5z m-3770 -10 c-3 -3 -12 -4 -19 -1 -8 3 -5 6 6 6
11 1 17 -2 13 -5z m2393 -4 c0 -8 -97 -23 -162 -25 -54 -2 -50 23 5 27 75 7
157 5 157 -2z m147 -26 c-3 -3 -12 -4 -19 -1 -8 3 -5 6 6 6 11 1 17 -2 13 -5z
m190 0 c-3 -3 -12 -4 -19 -1 -8 3 -5 6 6 6 11 1 17 -2 13 -5z m193 -4 c12 -8
9 -10 -12 -10 -15 0 -30 5 -33 10 -8 13 25 13 45 0z m-2060 -4 c0 -9 -30 -14
-35 -6 -4 6 3 10 14 10 12 0 21 -2 21 -4z m2740 -6 c0 -8 -46 -30 -60 -30 -6
0 -10 9 -10 20 0 17 6 20 35 18 19 -1 35 -5 35 -8z m115 0 c3 -5 -3 -10 -14
-10 -11 0 -23 5 -26 10 -3 6 3 10 14 10 11 0 23 -4 26 -10z m-2457 -17 c-10
-2 -26 -2 -35 0 -10 3 -2 5 17 5 19 0 27 -2 18 -5z m-1123 -13 c12 0 25 -7 29
-15 4 -12 -3 -15 -33 -15 -31 0 -40 4 -44 21 -4 15 -2 19 10 15 8 -3 25 -6 38
-6z m3035 -5 c0 -9 -9 -15 -25 -15 -24 0 -32 10 -18 23 12 13 43 7 43 -8z
m-897 -15 c4 -14 0 -20 -11 -20 -10 0 -30 -7 -45 -15 -20 -10 -57 -14 -125
-13 -106 1 -148 11 -136 30 6 10 5 10 -7 1 -24 -19 -301 -52 -407 -48 -74 3
-101 -8 -60 -24 31 -13 19 -13 -41 0 -27 6 -52 17 -55 25 -3 8 -12 14 -21 14
-18 0 -21 -20 -2 -21 11 0 -48 -27 -65 -28 -18 -2 -6 17 14 23 35 9 9 26 -51
33 -59 7 -56 18 8 28 34 6 42 4 36 -5 -6 -10 1 -11 36 -4 53 10 135 11 207 2
39 -5 52 -3 52 7 0 19 104 27 253 19 103 -6 135 -11 144 -23 11 -14 12 -14 13
3 0 20 7 20 123 0 30 -5 37 -4 37 9 0 16 21 23 71 26 19 1 28 -5 32 -19z m821
-1 c30 -23 26 -42 -7 -34 -12 3 -69 7 -127 9 -58 2 -114 5 -125 6 l-20 1 20 9
c11 5 32 9 48 9 15 1 27 5 27 9 0 4 35 9 79 10 66 2 82 -1 105 -19z m-299 -10
c5 -5 -27 -9 -75 -9 -52 0 -80 4 -74 9 19 20 127 19 149 0z m430 2 c0 -8 -6
-16 -14 -19 -8 -3 -11 0 -7 6 3 6 -2 16 -11 22 -16 9 -15 10 7 8 14 -2 25 -9
25 -17z m-5023 -63 c-8 -8 -10 1 -10 33 l1 44 10 -33 c7 -23 7 -36 -1 -44z
m4132 34 c-8 -2 -22 -2 -31 0 -15 3 -15 4 1 21 18 17 19 17 31 0 12 -15 11
-19 -1 -21z m256 28 c0 -5 -14 -7 -32 -3 -46 8 -48 13 -5 13 21 0 37 -4 37
-10z m-1655 -30 c-3 -5 -13 -10 -21 -10 -8 0 -12 5 -9 10 3 6 13 10 21 10 8 0
12 -4 9 -10z m-145 -16 c0 -11 -5 -14 -16 -10 -9 3 -18 6 -20 6 -3 0 -2 5 1
10 10 16 35 12 35 -6z m1650 6 c-19 -13 -30 -13 -30 0 0 6 10 10 23 10 18 0
19 -2 7 -10z m-2155 -19 c3 -5 17 -7 32 -5 16 2 51 6 78 10 39 5 54 3 63 -9
20 -23 -1 -30 -81 -28 -125 4 -247 37 -143 39 25 1 48 -3 51 -7z m2445 -1 c0
-5 -7 -10 -15 -10 -8 0 -15 5 -15 10 0 6 7 10 15 10 8 0 15 -4 15 -10z m73 3
c-7 -2 -21 -2 -30 0 -10 3 -4 5 12 5 17 0 24 -2 18 -5z m-2218 -22 c7 -13 -67
-33 -78 -22 -5 5 -6 14 -3 20 9 13 73 15 81 2z m1583 2 c-16 -4 -22 -15 -19
-35 0 -5 -14 -7 -31 -7 -25 1 -27 3 -10 6 14 3 22 10 18 18 -7 18 3 25 33 24
17 -1 20 -3 9 -6z m-3861 -25 c-3 -8 -6 -5 -6 6 -1 11 2 17 5 13 3 -3 4 -12 1
-19z m3495 0 c17 -17 17 -18 -4 -18 -22 1 -58 21 -58 33 0 13 46 1 62 -15z
m146 11 c11 0 12 -2 5 -6 -7 -2 -13 -11 -13 -18 0 -9 -15 -12 -49 -12 -51 1
-62 16 -13 18 21 1 23 2 7 7 l-20 5 20 8 c11 4 26 6 33 3 8 -2 21 -4 30 -5z
m-3694 -15 c3 -8 2 -12 -4 -9 -6 3 -10 10 -10 16 0 14 7 11 14 -7z m33 -31
c-3 -10 -5 -4 -5 12 0 17 2 24 5 18 2 -7 2 -21 0 -30z m3748 27 c4 -6 -5 -10
-19 -10 -14 0 -26 5 -26 10 0 6 9 10 19 10 11 0 23 -4 26 -10z m-330 -15 c6
-2 -24 -3 -65 -3 -48 0 -64 3 -45 7 28 6 88 4 110 -4z m-3368 -17 c-3 -8 -6
-5 -6 6 -1 11 2 17 5 13 3 -3 4 -12 1 -19z m3131 15 c-10 -2 -28 -2 -40 0 -13
2 -5 4 17 4 22 1 32 -1 23 -4z m1489 -9 c-3 -3 -12 -4 -19 -1 -8 3 -5 6 6 6
11 1 17 -2 13 -5z m-80 -10 c-3 -3 -12 -4 -19 -1 -8 3 -5 6 6 6 11 1 17 -2 13
-5z m-2032 -24 c4 -6 -8 -10 -30 -10 -22 0 -34 4 -30 10 3 6 17 10 30 10 13 0
27 -4 30 -10z m2859 1 c7 -11 -28 -21 -54 -14 -28 7 -14 23 20 23 16 0 31 -4
34 -9z m-2609 -11 c-9 -15 32 -20 148 -17 115 3 153 -5 96 -21 -24 -6 -38 -6
-47 2 -9 9 -33 9 -88 2 -56 -7 -84 -6 -110 3 -24 9 -59 10 -109 6 -50 -5 -75
-4 -75 3 0 6 30 13 68 17 37 4 72 8 77 10 21 7 46 5 40 -5z m2703 3 c-10 -2
-26 -2 -35 0 -10 3 -2 5 17 5 19 0 27 -2 18 -5z m-2231 -25 c-3 -8 -6 -5 -6 6
-1 11 2 17 5 13 3 -3 4 -12 1 -19z m123 12 c0 -5 -5 -10 -11 -10 -5 0 -7 -4
-4 -10 3 -5 -1 -10 -9 -10 -19 0 -21 26 -3 33 20 9 27 8 27 -3z m-180 -9 c-8
-5 -42 -11 -75 -14 l-60 -6 50 13 c59 16 108 20 85 7z m715 -1 c-3 -5 -12 -7
-20 -3 -21 7 -19 13 6 13 11 0 18 -4 14 -10z m302 -16 c-10 -11 -78 -22 -97
-17 -40 10 -19 21 41 22 34 0 59 -2 56 -5z m-1289 -35 c39 1 72 -2 72 -7 0
-15 -39 -22 -130 -22 -63 0 -81 3 -70 11 12 8 9 10 -12 6 -19 -3 -25 0 -21 10
4 11 15 13 47 7 22 -4 74 -7 114 -5z m406 3 c13 -7 -17 -22 -46 -22 -20 0 -26
4 -22 15 6 13 47 18 68 7z m1341 -2 c-3 -5 -13 -10 -21 -10 -8 0 -14 5 -14 10
0 6 9 10 21 10 11 0 17 -4 14 -10z m-1240 -20 c17 -7 16 -9 -10 -9 -16 0 -37
4 -45 9 -12 8 -10 10 10 9 14 0 34 -4 45 -9z m83 3 c-10 -2 -26 -2 -35 0 -10
3 -2 5 17 5 19 0 27 -2 18 -5z m542 -20 c0 -4 -28 -9 -63 -10 -34 -1 -74 -6
-88 -11 -30 -12 -64 2 -41 17 18 11 192 15 192 4z m-230 -28 c-7 -8 -16 -12
-21 -9 -5 3 -28 -2 -52 -10 -25 -8 -53 -13 -63 -11 -63 13 -74 16 -74 24 0 4
41 8 91 8 50 1 93 4 96 7 4 3 13 6 21 6 12 0 12 -3 2 -15z m-666 -29 c-3 -8
-13 -12 -25 -9 -27 7 -24 23 6 23 17 0 23 -4 19 -14z m256 -11 c28 -16 19 -18
-30 -9 -22 5 -28 9 -18 15 17 11 18 11 48 -6z m-213 -1 c-3 -3 -12 -4 -19 -1
-8 3 -5 6 6 6 11 1 17 -2 13 -5z m326 -11 c-7 -2 -13 -9 -13 -14 0 -6 4 -8 8
-5 4 2 14 0 22 -6 11 -7 6 -8 -17 -4 -18 3 -35 1 -38 -4 -10 -17 -32 -11 -38
9 -4 15 1 21 22 24 38 6 68 6 54 0z m87 -13 c0 -5 -8 -10 -17 -10 -15 0 -16 2
-3 10 19 12 20 12 20 0z m180 -54 c0 -2 -11 -6 -25 -8 -13 -3 -22 -1 -19 3 5
9 44 13 44 5z m-267 -63 c-7 -2 -21 -2 -30 0 -10 3 -4 5 12 5 17 0 24 -2 18
-5z m2007 -17 c0 -2 -7 -7 -16 -10 -8 -3 -12 -2 -9 4 6 10 25 14 25 6z m-127
-33 c-7 -2 -19 -2 -25 0 -7 3 -2 5 12 5 14 0 19 -2 13 -5z m-1264 -142 c7 -5
11 -14 7 -19 -9 -15 -36 -4 -36 14 0 16 9 18 29 5z m-484 -31 c-3 -5 -15 -10
-26 -10 -10 0 -19 5 -19 10 0 6 12 10 26 10 14 0 23 -4 19 -10z m114 -6 c10
-9 -35 -3 -49 6 -11 8 -7 9 15 4 17 -4 32 -8 34 -10z m693 -766 c-17 -8 -26
-8 -34 0 -9 9 -4 12 23 11 32 0 33 -1 11 -11z m238 2 c0 -5 -7 -10 -16 -10 -8
0 -12 5 -9 10 3 6 10 10 16 10 5 0 9 -4 9 -10z"/>
<path d="M1218 4593 c7 -3 16 -2 19 1 4 3 -2 6 -13 5 -11 0 -14 -3 -6 -6z"/>
<path d="M2068 4334 c-5 -4 -8 -18 -8 -31 0 -15 -6 -23 -17 -23 -17 -1 -16 -2
1 -15 17 -13 18 -16 3 -39 -15 -22 -15 -25 3 -41 17 -15 20 -16 25 -3 9 22 1
161 -7 152z"/>
<path d="M846 4223 c-9 -22 13 -88 26 -75 10 10 1 79 -12 87 -4 3 -11 -3 -14
-12z"/>
<path d="M2040 4147 c0 -14 5 -29 10 -32 7 -4 8 3 4 22 -9 38 -14 42 -14 10z"/>
<path d="M2025 3858 c-21 -21 -35 -38 -30 -38 16 1 78 56 74 66 -2 5 -22 -8
-44 -28z"/>
<path d="M1850 3795 c-35 -18 -143 -53 -220 -69 -36 -8 -54 -15 -40 -15 14 0
52 6 85 14 79 19 94 19 69 0 -10 -8 -15 -15 -10 -15 6 0 -17 -20 -50 -45 -65
-48 -103 -102 -64 -92 13 3 20 0 20 -8 0 -24 21 -28 40 -9 10 11 31 41 46 69
15 27 33 56 41 64 8 7 17 27 20 43 6 32 43 53 75 45 11 -3 15 -1 12 5 -4 6 0
14 7 19 22 14 -4 9 -31 -6z"/>
<path d="M1523 3703 c9 -2 23 -2 30 0 6 3 -1 5 -18 5 -16 0 -22 -2 -12 -5z"/>
<path d="M1433 3693 c15 -2 37 -2 50 0 12 2 0 4 -28 4 -27 0 -38 -2 -22 -4z"/>
<path d="M1243 3683 c20 -2 54 -2 75 0 20 2 3 4 -38 4 -41 0 -58 -2 -37 -4z"/>
<path d="M2055 3000 c3 -5 8 -10 11 -10 2 0 4 5 4 10 0 6 -5 10 -11 10 -5 0
-7 -4 -4 -10z"/>
<path d="M1900 2990 c-8 -5 -31 -7 -51 -4 -24 4 -47 0 -67 -10 -34 -18 -44
-41 -14 -32 9 2 56 7 103 11 78 6 121 17 109 28 -12 11 -66 16 -80 7z"/>
<path d="M2575 2530 c-3 -5 -1 -10 4 -10 6 0 11 5 11 10 0 6 -2 10 -4 10 -3 0
-8 -4 -11 -10z"/>
<path d="M2525 2060 c-3 -5 -1 -10 4 -10 6 0 11 5 11 10 0 6 -2 10 -4 10 -3 0
-8 -4 -11 -10z"/>
<path d="M2193 1883 c-4 -9 -1 -19 5 -21 7 -2 12 -17 12 -33 0 -18 4 -28 10
-24 14 9 8 84 -8 90 -7 2 -16 -3 -19 -12z"/>
<path d="M2237 1747 c-6 -15 19 -52 27 -39 7 11 -4 52 -14 52 -4 0 -10 -6 -13
-13z"/>
<path d="M2327 1673 c-4 -3 -7 -13 -7 -22 1 -13 3 -13 11 2 11 19 8 33 -4 20z"/>
<path d="M4965 2605 c-16 -7 -24 -14 -17 -14 6 -1 12 -7 12 -15 0 -11 5 -12
25 -3 24 12 33 31 18 40 -5 3 -21 -1 -38 -8z"/>
<path d="M5070 2600 c0 -5 4 -10 9 -10 6 0 13 5 16 10 3 6 -1 10 -9 10 -9 0
-16 -4 -16 -10z"/>
<path d="M4880 2560 c0 -5 9 -10 20 -10 11 0 20 5 20 10 0 6 -9 10 -20 10 -11
0 -20 -4 -20 -10z"/>
<path d="M5605 2500 c-43 -8 -42 -9 23 -16 31 -3 43 -1 40 8 -5 15 -15 16 -63
8z"/>
<path d="M5777 2444 c-14 -15 7 -24 53 -24 53 0 80 7 80 21 0 10 -123 13 -133
3z"/>
<path d="M6102 2168 c2 -6 10 -14 16 -16 7 -2 10 2 6 12 -7 18 -28 22 -22 4z"/>
<path d="M5878 2023 c6 -2 18 -2 25 0 6 3 1 5 -13 5 -14 0 -19 -2 -12 -5z"/>
<path d="M5673 1992 c-24 -2 -43 -7 -43 -11 0 -5 -17 -9 -37 -9 -74 -3 -83 -4
-83 -17 0 -16 32 -25 87 -25 30 0 41 4 38 13 -4 9 16 13 77 15 46 2 90 8 100
13 9 5 26 9 37 9 12 0 21 4 21 10 0 9 -89 10 -197 2z"/>
<path d="M5948 1973 c6 -2 18 -2 25 0 6 3 1 5 -13 5 -14 0 -19 -2 -12 -5z"/>
<path d="M5822 1938 c-55 -27 -42 -35 58 -38 104 -4 122 -2 114 11 -4 8 -1 8
12 1 27 -14 109 -19 111 -7 1 6 12 13 25 17 13 4 -1 5 -30 2 -30 -3 -61 0 -73
7 -12 6 -48 11 -80 10 -32 0 -61 4 -64 9 -9 14 -24 12 -73 -12z"/>
<path d="M5710 1925 c0 -8 -8 -15 -17 -16 -12 0 -13 -2 -5 -6 16 -6 72 16 72
28 0 5 -11 9 -25 9 -16 0 -25 -6 -25 -15z"/>
<path d="M5527 1745 c-9 -23 9 -26 28 -5 17 19 17 20 -2 20 -12 0 -23 -7 -26
-15z"/>
<path d="M1553 7981 c-22 -11 -33 -23 -33 -38 0 -27 7 -28 34 -8 11 8 28 15
38 15 22 0 88 31 88 42 0 13 -58 9 -64 -4 -5 -10 -7 -10 -12 0 -7 14 -10 14
-51 -7z"/>
<path d="M1790 7991 c0 -5 -7 -17 -16 -26 -9 -9 -13 -19 -9 -23 4 -4 10 -1 12
6 3 6 13 12 24 12 21 0 22 1 13 24 -7 17 -24 22 -24 7z"/>
<path d="M1950 7989 c0 -5 5 -7 10 -4 6 3 10 8 10 11 0 2 -4 4 -10 4 -5 0 -10
-5 -10 -11z"/>
<path d="M2090 7981 c0 -10 -7 -24 -15 -31 -13 -10 -19 -10 -35 5 -11 10 -20
15 -20 10 0 -4 8 -14 18 -21 9 -7 17 -18 17 -25 0 -7 6 -14 14 -17 8 -3 11 0
8 5 -4 6 3 8 18 6 20 -4 23 -2 19 18 -4 20 -3 21 4 5 10 -23 4 -66 -9 -66 -5
0 -9 -5 -9 -11 0 -6 6 -9 13 -6 6 2 19 -2 28 -9 14 -13 15 -9 6 39 -5 28 -13
60 -18 69 -5 10 -6 23 -4 30 4 9 -2 14 -15 15 -13 1 -20 -4 -20 -16z"/>
<path d="M4656 7963 c5 -21 8 -57 7 -80 0 -33 3 -43 16 -43 16 0 41 41 41 67
0 9 16 13 51 13 66 0 62 24 -4 28 -42 3 -47 6 -47 28 0 21 -4 24 -36 24 l-36
0 8 -37z m54 -29 c0 -8 -7 -14 -15 -14 -15 0 -21 21 -9 33 10 9 24 -2 24 -19z"/>
<path d="M4823 7988 c2 -7 10 -13 17 -13 7 0 15 6 18 13 2 7 -5 12 -18 12 -13
0 -20 -5 -17 -12z"/>
<path d="M4900 7987 c0 -8 -9 -22 -19 -31 -11 -10 -22 -29 -26 -43 -5 -20 -11
-24 -30 -20 -23 4 -25 2 -24 -37 0 -22 3 -35 6 -28 8 19 33 14 33 -7 0 -30 19
-35 29 -9 l9 23 11 -27 c13 -35 31 -36 31 -3 0 18 7 26 25 31 21 5 25 12 25
40 0 38 33 79 56 70 8 -3 14 -1 14 5 0 6 5 7 11 3 6 -3 8 -15 6 -26 -3 -11 -1
-32 5 -48 10 -29 10 -29 40 -14 34 18 48 12 25 -11 -9 -8 -31 -15 -51 -15 -33
0 -35 2 -39 38 l-4 37 0 -40 c0 -46 -17 -95 -33 -95 -6 0 -15 12 -20 26 -13
34 -34 20 -26 -17 4 -22 2 -29 -10 -29 -8 0 -13 -4 -9 -9 3 -5 29 -8 58 -7 46
3 52 5 49 24 -2 13 5 25 17 31 30 17 38 14 50 -19 9 -27 14 -30 50 -30 30 0
41 -4 41 -15 0 -18 -76 -21 -82 -3 -2 6 -10 8 -16 4 -26 -16 -9 -24 47 -24 32
1 64 -3 71 -7 8 -5 18 -1 26 9 7 10 17 15 23 11 7 -3 11 2 11 14 0 12 -7 21
-15 21 -8 0 -19 9 -25 20 -11 21 -12 20 34 34 8 3 16 -4 19 -15 7 -27 45 -25
57 4 9 22 9 22 9 -3 1 -45 34 -120 52 -120 18 0 29 19 29 51 0 17 5 18 40 13
l40 -7 0 57 c0 31 3 56 6 56 3 0 20 -8 36 -17 23 -14 32 -15 35 -5 3 8 28 12
74 12 63 0 85 -9 59 -25 -16 -10 -12 -55 5 -55 9 0 15 9 15 23 0 20 4 22 45
19 56 -5 60 -22 5 -22 l-40 0 0 -55 c0 -40 -4 -57 -15 -61 -24 -10 -41 18 -53
85 -13 72 -17 80 -35 62 -9 -10 -8 -15 6 -25 12 -9 17 -27 17 -60 0 -25 4 -46
9 -46 5 0 11 -9 14 -21 3 -12 10 -19 14 -16 5 3 15 2 22 -3 8 -4 27 -3 43 2
27 10 28 11 11 24 -16 12 -15 13 15 14 17 0 32 -4 32 -10 0 -5 -6 -10 -12 -10
-8 0 -6 -5 4 -11 9 -5 74 -10 143 -12 121 -2 126 -1 131 19 6 22 43 34 107 34
15 0 27 5 27 10 0 14 87 13 96 -1 4 -7 -1 -16 -10 -21 -9 -5 -16 -17 -16 -26
0 -14 2 -14 9 -3 13 20 39 6 47 -24 4 -18 13 -25 30 -25 25 0 32 14 13 26 -6
3 -9 17 -6 30 3 16 0 24 -9 24 -16 0 -19 16 -5 24 5 3 11 -1 15 -9 3 -8 15
-15 26 -15 22 0 27 -16 8 -23 -22 -8 -1 -19 22 -12 16 5 20 13 17 27 -4 15 -2
18 10 14 21 -9 45 13 38 35 -7 22 5 30 33 22 20 -5 21 -7 7 -17 -18 -13 -12
-41 11 -50 8 -3 13 -2 10 3 -3 5 8 11 25 15 48 9 109 7 109 -4 0 -5 7 -10 16
-10 8 0 12 -5 9 -10 -4 -6 -11 -8 -16 -5 -5 4 -9 2 -9 -4 0 -5 5 -13 10 -16 6
-4 8 -15 5 -26 -5 -15 -1 -19 15 -19 16 0 20 5 16 15 -3 9 3 19 14 25 11 6 17
16 14 25 -8 19 21 20 58 3 l26 -13 -26 -11 -27 -11 32 -16 c36 -19 73 -22 73
-7 0 6 -11 10 -25 10 -14 0 -25 5 -25 11 0 6 7 8 16 5 9 -3 27 -6 40 -6 18 0
24 -6 25 -22 1 -22 1 -22 8 1 9 32 28 38 36 12 7 -24 35 -28 35 -5 0 8 -5 25
-11 36 -14 27 -1 35 52 32 57 -2 62 -14 6 -14 -37 0 -47 -4 -47 -16 0 -14 9
-16 50 -12 51 5 79 -9 65 -32 -11 -18 25 -50 57 -50 38 0 36 16 -4 24 -26 5
-30 9 -18 16 12 8 13 11 1 19 -9 6 -10 11 -2 15 6 4 11 16 11 27 0 14 7 19 29
19 16 0 37 3 45 6 11 4 15 2 11 -7 -3 -8 4 -18 17 -24 19 -8 23 -18 22 -53 -1
-47 1 -49 23 -27 11 12 13 27 8 65 -6 41 -4 51 9 56 18 7 151 -8 179 -21 12
-5 17 -3 17 8 0 8 10 17 21 20 17 5 20 12 17 31 -7 35 1 42 55 48 36 4 47 2
47 -8 0 -8 -10 -14 -25 -14 -14 0 -25 -4 -25 -10 0 -5 26 -11 58 -12 55 -1 56
-1 17 -8 -32 -6 -28 -7 19 -4 32 2 67 4 77 4 11 0 19 5 19 10 0 6 -22 10 -50
10 -42 0 -50 3 -50 19 0 27 27 35 35 10 7 -23 23 -21 39 4 8 12 6 21 -8 36
-17 19 -17 20 13 35 16 9 32 16 34 16 3 0 12 -16 21 -35 14 -28 23 -35 46 -35
24 0 32 7 45 38 9 20 21 45 26 54 5 10 9 38 9 63 l0 45 -1550 0 c-1292 0
-1550 -2 -1550 -13z m300 -27 c0 -5 -4 -10 -9 -10 -6 0 -13 5 -16 10 -3 6 1
10 9 10 9 0 16 -4 16 -10z m-70 -30 c0 -5 -7 -10 -16 -10 -8 0 -12 5 -9 10 3
6 10 10 16 10 5 0 9 -4 9 -10z m2547 -6 c-3 -3 -12 -4 -19 -1 -8 3 -5 6 6 6
11 1 17 -2 13 -5z m-2717 -44 c0 -17 -7 -20 -40 -20 -24 0 -40 -5 -40 -12 0
-6 -2 -9 -5 -6 -4 3 -3 17 1 32 5 22 11 26 45 26 32 0 39 -3 39 -20z m980 -4
c0 -3 -4 -8 -10 -11 -5 -3 -10 -1 -10 4 0 6 5 11 10 11 6 0 10 -2 10 -4z
m-565 -26 c3 -5 -3 -10 -15 -10 -12 0 -18 5 -15 10 3 6 10 10 15 10 5 0 12 -4
15 -10z m2125 0 c0 -5 7 -10 15 -10 8 0 15 -7 15 -15 0 -8 -7 -15 -15 -15 -8
0 -15 7 -15 15 0 8 -9 15 -20 15 -11 0 -20 5 -20 10 0 6 9 10 20 10 11 0 20
-4 20 -10z m170 0 c0 -5 -7 -10 -15 -10 -8 0 -15 5 -15 10 0 6 7 10 15 10 8 0
15 -4 15 -10z m-393 -6 c-3 -3 -12 -4 -19 -1 -8 3 -5 6 6 6 11 1 17 -2 13 -5z
m61 -21 c-10 -2 -28 -2 -40 0 -13 2 -5 4 17 4 22 1 32 -1 23 -4z m-2138 -38
c0 -30 -25 -34 -39 -6 -12 21 -5 31 21 31 13 0 18 -7 18 -25z m717 3 c-3 -8
-6 -5 -6 6 -1 11 2 17 5 13 3 -3 4 -12 1 -19z m-37 -8 c0 -11 -4 -20 -9 -20
-5 0 -11 9 -14 20 -3 13 0 20 9 20 8 0 14 -9 14 -20z m240 11 c0 -5 -6 -16
-14 -24 -8 -8 -16 -32 -18 -53 l-3 -39 -95 -6 c-52 -3 -104 -2 -115 2 -13 5 0
8 37 8 52 1 58 4 74 30 10 16 26 32 36 34 10 3 18 9 17 14 -5 29 2 35 36 29
22 -4 35 -3 35 4 0 5 2 10 5 10 3 0 5 -4 5 -9z m1245 -1 c-3 -5 -24 -10 -46
-10 -21 0 -39 5 -39 10 0 6 21 10 46 10 27 0 43 -4 39 -10z m-802 -28 c-18 -5
-27 3 -18 17 4 7 10 7 20 -2 11 -10 11 -13 -2 -15z m356 7 c18 -6 31 -18 31
-27 0 -11 3 -13 8 -6 4 6 14 14 22 17 12 4 11 6 -2 6 -31 2 -19 21 12 21 17 0
30 -4 30 -10 0 -5 -4 -10 -9 -10 -5 0 -11 -10 -13 -22 -2 -17 -9 -23 -26 -22
-17 0 -21 -4 -16 -18 3 -12 0 -18 -10 -18 -9 0 -16 9 -16 20 0 19 -9 24 -36
21 -12 -1 -25 44 -16 54 7 6 4 7 41 -6z m201 -19 c0 -5 -4 -10 -10 -10 -5 0
-10 5 -10 10 0 6 5 10 10 10 6 0 10 -4 10 -10z m425 -30 c0 -13 -6 -25 -12
-27 -9 -3 -13 6 -13 27 0 21 4 30 13 28 6 -3 12 -15 12 -28z m-837 13 c-10 -2
-26 -2 -35 0 -10 3 -2 5 17 5 19 0 27 -2 18 -5z m-5 -20 c-13 -2 -33 -2 -45 0
-13 2 -3 4 22 4 25 0 35 -2 23 -4z"/>
<path d="M6045 7690 c-3 -5 3 -10 14 -10 12 0 21 5 21 10 0 6 -6 10 -14 10 -8
0 -18 -4 -21 -10z"/>
<path d="M1862 7978 c8 -23 56 -44 69 -31 8 8 4 15 -19 27 -37 19 -55 20 -50
4z"/>
<path d="M4366 7981 c-4 -7 -5 -15 -2 -18 9 -9 19 4 14 18 -4 11 -6 11 -12 0z"/>
<path d="M1670 7939 c-10 -22 -10 -33 -1 -42 8 -8 11 -8 11 2 0 8 9 2 21 -13
11 -14 26 -26 34 -26 7 0 18 -7 25 -15 11 -13 8 -14 -21 -9 -33 6 -33 6 -17
-11 14 -15 22 -17 42 -7 13 6 35 8 47 5 20 -5 18 0 -14 28 -21 18 -48 38 -60
44 -11 5 -25 25 -29 43 -11 40 -22 41 -38 1z"/>
<path d="M1840 7939 c0 -5 5 -7 10 -4 6 3 10 8 10 11 0 2 -4 4 -10 4 -5 0 -10
-5 -10 -11z"/>
<path d="M1920 7911 c0 -13 8 -21 23 -23 15 -2 21 -9 19 -20 -2 -11 3 -18 13
-18 8 0 15 5 15 11 0 11 59 -31 59 -43 1 -5 -6 -8 -14 -8 -8 0 -15 -4 -15 -10
0 -5 14 -8 30 -6 27 3 30 1 24 -16 -4 -15 -2 -19 7 -16 8 3 12 14 10 24 -3 18
-2 18 17 1 12 -11 18 -26 15 -38 -4 -14 0 -19 15 -19 25 0 37 16 21 26 -8 5
-9 3 -4 -6 5 -9 4 -11 -3 -6 -7 4 -12 13 -12 20 0 16 -54 68 -63 60 -3 -4 -12
5 -18 19 -7 15 -15 24 -19 22 -4 -2 -16 5 -28 15 -12 11 -24 20 -27 20 -4 0
-13 7 -21 15 -21 21 -44 19 -44 -4z"/>
<path d="M1810 7880 c0 -5 5 -10 10 -10 6 0 10 5 10 10 0 6 -4 10 -10 10 -5 0
-10 -4 -10 -10z"/>
<path d="M1570 7870 c0 -5 7 -10 15 -10 8 0 15 5 15 10 0 6 -7 10 -15 10 -8 0
-15 -4 -15 -10z"/>
<path d="M977 7859 c7 -7 15 -10 18 -7 3 3 -2 9 -12 12 -14 6 -15 5 -6 -5z"/>
<path d="M1630 7850 c0 -5 6 -10 13 -10 8 0 7 -4 -3 -10 -17 -11 -1 -13 24 -4
13 5 14 9 5 20 -13 16 -39 19 -39 4z"/>
<path d="M4988 7833 c6 -2 18 -2 25 0 6 3 1 5 -13 5 -14 0 -19 -2 -12 -5z"/>
<path d="M7831 7824 c0 -11 3 -14 6 -6 3 7 2 16 -1 19 -3 4 -6 -2 -5 -13z"/>
<path d="M1990 7814 c0 -8 5 -12 10 -9 6 3 10 10 10 16 0 5 -4 9 -10 9 -5 0
-10 -7 -10 -16z"/>
<path d="M2151 7811 c-10 -6 -7 -12 10 -24 28 -20 36 -15 17 12 -9 12 -19 17
-27 12z"/>
<path d="M955 7790 c3 -5 10 -10 16 -10 5 0 9 5 9 10 0 6 -7 10 -16 10 -8 0
-12 -4 -9 -10z"/>
<path d="M1720 7790 c0 -5 7 -10 15 -10 8 0 15 5 15 10 0 6 -7 10 -15 10 -8 0
-15 -4 -15 -10z"/>
<path d="M1795 7790 c3 -5 8 -10 11 -10 2 0 4 5 4 10 0 6 -5 10 -11 10 -5 0
-7 -4 -4 -10z"/>
<path d="M2430 7775 c-10 -12 -10 -15 4 -15 9 0 16 7 16 15 0 8 -2 15 -4 15
-2 0 -9 -7 -16 -15z"/>
<path d="M2460 7781 c0 -6 5 -13 10 -16 6 -3 10 1 10 9 0 9 -4 16 -10 16 -5 0
-10 -4 -10 -9z"/>
<path d="M2560 7785 c0 -8 73 -36 79 -29 10 9 -31 34 -56 34 -13 0 -23 -2 -23
-5z"/>
<path d="M1756 7761 c-3 -5 1 -11 9 -15 8 -3 15 -1 15 4 0 13 -18 22 -24 11z"/>
<path d="M1790 7763 c0 -6 14 -16 30 -22 18 -6 30 -6 30 0 0 5 -8 9 -18 9 -10
0 -23 5 -30 12 -8 8 -12 8 -12 1z"/>
<path d="M1920 7741 c0 -5 7 -12 16 -15 24 -9 28 -7 14 9 -14 17 -30 20 -30 6z"/>
<path d="M2460 7720 c0 -5 4 -10 9 -10 6 0 13 5 16 10 3 6 -1 10 -9 10 -9 0
-16 -4 -16 -10z"/>
<path d="M2720 7713 c0 -12 38 -48 45 -41 3 2 -6 15 -20 28 -14 13 -25 19 -25
13z"/>
<path d="M5465 7710 c-3 -5 -3 -14 0 -20 3 -5 -1 -10 -10 -10 -26 0 -11 -25
17 -28 19 -2 27 2 31 18 3 14 10 19 17 15 9 -6 9 -2 1 14 -12 22 -45 28 -56
11z"/>
<path d="M7698 7703 c12 -2 32 -2 45 0 12 2 2 4 -23 4 -25 0 -35 -2 -22 -4z"/>
<path d="M7888 7703 c6 -2 18 -2 25 0 6 3 1 5 -13 5 -14 0 -19 -2 -12 -5z"/>
<path d="M5040 7689 c0 -5 9 -9 20 -9 11 0 20 2 20 4 0 2 -9 6 -20 9 -11 3
-20 1 -20 -4z"/>
<path d="M2617 7665 c3 -8 9 -12 14 -9 12 7 11 11 -5 17 -10 4 -13 1 -9 -8z"/>
<path d="M5200 7670 c0 -5 10 -10 23 -10 18 0 19 2 7 10 -19 13 -30 13 -30 0z"/>
<path d="M6173 7638 c8 -34 12 -38 18 -22 14 37 10 64 -10 64 -17 0 -18 -4 -8
-42z"/>
<path d="M6231 7664 c0 -11 3 -14 6 -6 3 7 2 16 -1 19 -3 4 -6 -2 -5 -13z"/>
<path d="M7383 7663 c-51 -10 -18 -23 57 -23 64 0 80 3 80 15 0 12 -12 15 -57
14 -32 -1 -68 -4 -80 -6z"/>
<path d="M6250 7643 c0 -10 5 -25 10 -33 9 -13 11 -13 20 0 14 21 8 44 -13 48
-11 2 -17 -3 -17 -15z"/>
<path d="M515 7640 c3 -5 11 -10 16 -10 6 0 7 5 4 10 -3 6 -11 10 -16 10 -6 0
-7 -4 -4 -10z"/>
<path d="M2646 7636 c3 -9 11 -16 16 -16 13 0 5 23 -10 28 -7 2 -10 -2 -6 -12z"/>
<path d="M6660 7630 c0 -5 6 -10 14 -10 8 0 18 5 21 10 3 6 -3 10 -14 10 -12
0 -21 -4 -21 -10z"/>
<path d="M3455 7544 c39 -38 81 -86 95 -106 14 -20 33 -41 43 -48 17 -10 17
-9 6 12 -29 57 -129 163 -180 192 -26 15 -18 3 36 -50z"/>
<path d="M3626 7597 c3 -10 9 -15 12 -12 3 3 0 11 -7 18 -10 9 -11 8 -5 -6z"/>
<path d="M5740 7600 c-23 -7 -23 -8 -3 -9 12 -1 25 4 28 9 3 6 5 10 3 9 -2 -1
-14 -5 -28 -9z"/>
<path d="M5825 7600 c3 -5 8 -10 11 -10 2 0 4 5 4 10 0 6 -5 10 -11 10 -5 0
-7 -4 -4 -10z"/>
<path d="M5898 7603 c7 -3 16 -2 19 1 4 3 -2 6 -13 5 -11 0 -14 -3 -6 -6z"/>
<path d="M6545 7590 c4 -6 11 -8 16 -5 14 9 11 15 -7 15 -8 0 -12 -5 -9 -10z"/>
<path d="M7218 7593 c12 -2 32 -2 45 0 12 2 2 4 -23 4 -25 0 -35 -2 -22 -4z"/>
<path d="M530 7587 c0 -2 14 -16 30 -32 17 -16 30 -24 30 -19 0 6 -13 20 -30
32 -16 13 -30 21 -30 19z"/>
<path d="M650 7582 c0 -6 12 -24 26 -39 l26 -28 -23 35 c-29 46 -29 45 -29 32z"/>
<path d="M123 7563 c-29 -3 -43 -9 -43 -19 0 -18 76 -20 84 -1 6 16 36 -20 36
-44 0 -11 7 -16 23 -15 17 1 23 6 19 19 -2 9 -11 17 -18 17 -8 0 -19 11 -24
25 -5 14 -15 24 -22 23 -7 -1 -32 -3 -55 -5z"/>
<path d="M0 7510 c0 -16 5 -30 10 -30 6 0 10 -13 10 -30 0 -16 4 -30 10 -30
16 0 23 49 10 65 -7 8 -10 24 -7 35 4 15 0 20 -14 20 -14 0 -19 -7 -19 -30z"/>
<path d="M3208 7520 c34 -21 52 -25 52 -12 0 8 -57 32 -76 32 -5 0 6 -9 24
-20z"/>
<path d="M65 7510 c3 -5 8 -10 11 -10 2 0 4 5 4 10 0 6 -5 10 -11 10 -5 0 -7
-4 -4 -10z"/>
<path d="M104 7504 c3 -9 6 -18 6 -21 0 -3 7 0 15 7 21 18 19 30 -6 30 -15 0
-19 -4 -15 -16z"/>
<path d="M320 7500 c0 -11 4 -20 9 -20 5 0 7 9 4 20 -3 11 -7 20 -9 20 -2 0
-4 -9 -4 -20z"/>
<path d="M350 7506 c0 -9 5 -16 10 -16 6 0 10 -7 10 -15 0 -8 5 -15 10 -15 15
0 12 9 -10 37 -15 19 -20 21 -20 9z"/>
<path d="M660 7511 c0 -6 4 -13 10 -16 6 -3 7 1 4 9 -7 18 -14 21 -14 7z"/>
<path d="M165 7500 c-3 -5 -1 -10 4 -10 6 0 11 5 11 10 0 6 -2 10 -4 10 -3 0
-8 -4 -11 -10z"/>
<path d="M7100 7490 c0 -5 5 -10 10 -10 6 0 10 5 10 10 0 6 -4 10 -10 10 -5 0
-10 -4 -10 -10z"/>
<path d="M408 7483 c7 -3 16 -2 19 1 4 3 -2 6 -13 5 -11 0 -14 -3 -6 -6z"/>
<path d="M445 7472 c-12 -12 -3 -20 29 -24 23 -2 32 0 29 8 -5 13 -49 25 -58
16z"/>
<path d="M340 7460 c0 -5 5 -10 11 -10 5 0 7 5 4 10 -3 6 -8 10 -11 10 -2 0
-4 -4 -4 -10z"/>
<path d="M3660 7460 c0 -5 5 -10 10 -10 6 0 10 5 10 10 0 6 -4 10 -10 10 -5 0
-10 -4 -10 -10z"/>
<path d="M520 7452 c0 -4 12 -15 28 -24 15 -10 21 -18 15 -18 -20 0 -15 -18 6
-25 15 -4 19 -13 16 -38 -4 -29 -3 -30 10 -13 13 18 14 17 21 -8 9 -38 27 -32
19 7 -9 42 -13 47 -61 90 -41 37 -54 44 -54 29z"/>
<path d="M850 7414 c0 -8 4 -13 9 -10 5 4 19 -9 30 -28 12 -19 38 -46 59 -62
l37 -27 -36 39 c-65 71 -79 88 -79 96 0 4 -4 8 -10 8 -5 0 -10 -7 -10 -16z"/>
<path d="M770 7380 c25 -23 54 -46 65 -52 l20 -11 -20 23 c-11 12 -40 36 -65
52 l-45 29 45 -41z"/>
<path d="M652 7399 c2 -6 7 -10 11 -10 4 1 15 1 25 1 14 0 15 2 2 10 -20 13
-43 13 -38 -1z"/>
<path d="M735 7371 c-3 -6 4 -15 15 -21 31 -17 42 -8 15 13 -14 9 -26 13 -30
8z"/>
<path d="M850 7371 c0 -6 5 -13 10 -16 6 -3 10 -14 10 -24 0 -9 7 -26 16 -37
14 -18 15 -18 9 6 -11 44 -27 80 -36 80 -5 0 -9 -4 -9 -9z"/>
<path d="M3580 7370 c0 -5 5 -10 11 -10 5 0 7 5 4 10 -3 6 -8 10 -11 10 -2 0
-4 -4 -4 -10z"/>
<path d="M250 7346 c7 -7 13 -7 20 0 6 6 3 10 -10 10 -13 0 -16 -4 -10 -10z"/>
<path d="M545 7350 c-3 -5 -1 -17 4 -27 5 -10 12 -26 15 -35 6 -21 36 -24 36
-5 0 7 -9 21 -21 30 -11 10 -18 25 -15 33 6 16 -9 20 -19 4z"/>
<path d="M453 7333 c-15 -5 -17 -23 -4 -23 5 0 11 7 15 15 3 8 4 15 3 14 -1 0
-8 -3 -14 -6z"/>
<path d="M3730 7330 c0 -8 7 -20 15 -29 8 -9 24 -27 35 -41 20 -24 20 -24 0
17 -24 46 -50 74 -50 53z"/>
<path d="M315 7319 c-4 -6 -5 -12 -2 -15 2 -3 7 2 10 11 7 17 1 20 -8 4z"/>
<path d="M770 7317 c0 -15 74 -49 78 -36 5 13 -39 48 -60 49 -10 0 -18 -6 -18
-13z"/>
<path d="M900 7312 c0 -12 19 -26 26 -19 2 2 -2 10 -11 17 -9 8 -15 8 -15 2z"/>
<path d="M660 7297 c0 -11 -8 -17 -25 -17 -14 0 -25 -4 -25 -9 0 -14 28 -21
61 -14 22 4 33 1 44 -13 8 -11 15 -14 15 -8 0 12 -16 32 -47 58 -21 17 -23 17
-23 3z"/>
<path d="M377 7294 c-7 -7 0 -13 55 -48 34 -22 33 -1 -1 35 -13 13 -21 18 -17
12 4 -8 1 -13 -8 -13 -8 0 -16 5 -18 11 -2 5 -7 7 -11 3z"/>
<path d="M3790 7291 c0 -10 19 -25 25 -20 1 2 -3 10 -11 17 -8 7 -14 8 -14 3z"/>
<path d="M210 7270 c8 -5 20 -10 25 -10 6 0 3 5 -5 10 -8 5 -19 10 -25 10 -5
0 -3 -5 5 -10z"/>
<path d="M3820 7245 c0 -8 4 -15 10 -15 5 0 7 7 4 15 -4 8 -8 15 -10 15 -2 0
-4 -7 -4 -15z"/>
<path d="M160 7239 c0 -6 9 -13 20 -16 14 -4 20 -14 20 -35 0 -19 4 -28 13
-25 18 6 8 48 -16 68 -25 21 -37 24 -37 8z"/>
<path d="M590 7241 c0 -5 7 -11 14 -14 10 -4 13 -1 9 9 -6 15 -23 19 -23 5z"/>
<path d="M667 7244 c-11 -11 3 -24 18 -18 8 4 12 10 9 15 -6 11 -18 12 -27 3z"/>
<path d="M700 7200 c0 -10 36 -50 44 -50 8 0 -8 45 -18 52 -15 11 -26 10 -26
-2z"/>
<path d="M3900 7186 c0 -8 5 -18 10 -21 6 -3 10 1 10 9 0 8 -4 18 -10 21 -5 3
-10 -1 -10 -9z"/>
<path d="M3880 7145 c0 -8 5 -15 10 -15 6 0 10 7 10 15 0 8 -4 15 -10 15 -5 0
-10 -7 -10 -15z"/>
<path d="M420 7062 c0 -4 4 -13 9 -20 7 -11 9 -11 14 1 3 9 -1 18 -9 21 -8 3
-14 2 -14 -2z"/>
<path d="M158 7033 c7 -3 16 -2 19 1 4 3 -2 6 -13 5 -11 0 -14 -3 -6 -6z"/>
<path d="M580 6980 c0 -5 5 -10 11 -10 5 0 7 5 4 10 -3 6 -8 10 -11 10 -2 0
-4 -4 -4 -10z"/>
<path d="M630 6971 c0 -5 7 -12 16 -15 14 -5 15 -4 4 9 -14 17 -20 19 -20 6z"/>
<path d="M100 6950 c-19 -12 116 -12 145 0 14 6 -4 9 -55 9 -41 0 -82 -4 -90
-9z"/>
<path d="M335 6930 c3 -5 11 -10 16 -10 6 0 7 5 4 10 -3 6 -11 10 -16 10 -6 0
-7 -4 -4 -10z"/>
<path d="M70 6920 c0 -5 7 -10 16 -10 8 0 12 5 9 10 -3 6 -10 10 -16 10 -5 0
-9 -4 -9 -10z"/>
<path d="M300 6916 c0 -2 9 -6 20 -9 11 -3 18 -1 14 4 -5 9 -34 13 -34 5z"/>
<path d="M460 6830 c0 -5 6 -10 14 -10 8 0 16 -7 20 -15 5 -14 -5 -19 -31 -16
-7 1 -13 -2 -13 -6 1 -19 18 -31 53 -36 31 -4 37 -2 37 13 0 10 -13 32 -29 49
-29 31 -51 40 -51 21z"/>
<path d="M390 6820 c-12 -8 -9 -10 13 -10 15 0 27 5 27 10 0 13 -20 13 -40 0z"/>
<path d="M350 6802 c0 -5 17 -14 38 -20 l37 -10 -40 -3 c-40 -2 -40 -2 10 -8
59 -7 57 -8 50 12 -4 8 -18 17 -33 20 -15 2 -35 8 -44 12 -11 4 -18 3 -18 -3z"/>
<path d="M258 6743 c-8 -10 -18 -25 -22 -33 -4 -8 0 -6 8 4 11 13 16 15 16 6
0 -10 4 -9 18 3 10 10 25 17 33 17 12 0 11 2 -1 10 -22 14 -35 12 -52 -7z"/>
<path d="M393 6722 c-52 -15 -70 -32 -35 -32 16 -1 16 -1 -1 -11 -10 -6 -26
-8 -35 -4 -68 28 -152 -18 -121 -66 7 -11 9 -11 9 -1 0 7 11 24 25 38 23 23
27 24 41 10 16 -17 49 -22 40 -7 -6 9 73 25 82 16 3 -3 -14 -13 -38 -22 -40
-16 -42 -18 -19 -24 16 -4 42 3 79 22 30 15 67 31 83 35 15 3 27 10 27 15 0
12 -27 11 -35 -1 -3 -5 -18 -10 -33 -10 l-27 1 30 16 c41 21 42 23 25 33 -19
12 -33 11 -97 -8z"/>
<path d="M1412 6625 c-11 -13 -9 -15 8 -15 11 0 20 7 20 15 0 19 -11 19 -28 0z"/>
<path d="M357 6586 c-12 -9 -14 -16 -8 -21 6 -3 11 -1 11 5 0 6 5 8 10 5 6 -3
10 1 10 9 0 19 0 19 -23 2z"/>
<path d="M238 6573 c7 -3 16 -2 19 1 4 3 -2 6 -13 5 -11 0 -14 -3 -6 -6z"/>
<path d="M1235 6570 c-3 -5 3 -10 15 -10 12 0 18 -4 15 -10 -3 -5 3 -10 13
-10 29 0 35 27 9 34 -32 8 -45 7 -52 -4z"/>
<path d="M1057 6562 c-15 -2 -25 -8 -22 -13 4 -5 1 -9 -4 -9 -6 0 -11 -8 -11
-19 0 -19 -44 -54 -67 -54 -7 0 -13 -4 -13 -9 0 -4 -4 -8 -10 -8 -14 0 -100
-54 -222 -139 -102 -71 -107 -76 -94 -95 8 -12 19 -20 25 -18 6 1 16 3 22 5 6
1 14 -4 16 -11 4 -9 -9 -12 -48 -11 -43 2 -55 -2 -70 -19 -9 -12 -27 -22 -39
-22 -12 0 -18 -4 -15 -10 3 -5 1 -10 -4 -10 -6 0 -11 -7 -11 -15 0 -8 -7 -15
-17 -15 -15 0 -15 1 0 18 18 20 13 32 -12 32 -12 0 -13 -2 -3 -8 10 -7 7 -13
-10 -25 -42 -31 -63 -49 -49 -41 9 5 12 3 7 -4 -4 -7 -14 -12 -23 -12 -12 0
-13 -3 -4 -14 9 -11 5 -16 -18 -28 -28 -13 -29 -15 -11 -26 16 -9 18 -9 14 2
-3 9 5 15 25 19 26 5 62 33 133 100 34 32 33 8 0 -26 -32 -33 -42 -54 -19 -41
6 4 5 -1 -4 -12 -9 -10 -14 -24 -12 -31 5 -13 -52 -52 -111 -77 -20 -8 -36
-22 -36 -30 0 -8 -5 -16 -11 -18 -6 -2 -2 -13 10 -27 16 -19 18 -26 8 -42 -9
-14 -9 -21 2 -31 11 -10 14 -10 18 0 5 12 33 18 33 6 0 -3 -7 -12 -15 -20 -8
-9 -15 -24 -15 -35 0 -16 4 -18 18 -10 9 5 22 9 27 10 6 0 11 9 13 20 2 11 10
25 18 31 8 7 14 21 14 31 0 10 4 21 10 24 5 3 10 15 10 25 0 11 11 27 25 36
18 12 24 23 20 38 -2 11 -2 15 1 9 4 -10 11 -10 27 -2 24 13 57 44 57 55 0 8
32 33 44 34 4 0 6 -7 2 -15 -3 -9 0 -15 10 -15 9 0 14 6 11 13 -2 6 3 17 12
24 22 17 36 16 21 -2 -10 -12 -10 -15 2 -15 24 0 28 11 11 36 -12 19 -12 23
-2 19 22 -8 70 37 84 78 7 21 9 37 3 37 -5 0 8 16 28 36 31 28 35 37 24 44 -8
6 -22 10 -30 11 -8 0 -4 4 10 8 20 6 25 13 23 36 -2 26 -1 27 13 9 17 -22 7
-31 99 96 30 41 62 85 71 98 9 12 23 22 30 22 15 0 28 17 17 22 -5 2 -20 2
-36 0z m-146 -175 c-19 -18 -30 -25 -26 -17 11 21 49 58 54 53 3 -2 -10 -18
-28 -36z m-131 -177 c0 -5 -4 -10 -10 -10 -5 0 -10 5 -10 10 0 6 5 10 10 10 6
0 10 -4 10 -10z m-120 -60 c0 -5 -9 -14 -20 -20 -22 -12 -27 -1 -8 18 14 14
28 16 28 2z"/>
<path d="M62 6521 c4 -13 18 -16 19 -4 0 4 -5 9 -11 12 -7 2 -11 -2 -8 -8z"/>
<path d="M1826 6488 c5 -7 2 -9 -8 -6 -9 4 -15 0 -15 -8 0 -8 6 -14 14 -14 7
0 13 5 13 11 0 5 4 7 10 4 6 -3 7 1 4 9 -3 9 -10 16 -16 16 -5 0 -6 -5 -2 -12z"/>
<path d="M1715 6480 c3 -5 10 -10 16 -10 5 0 9 5 9 10 0 6 -7 10 -16 10 -8 0
-12 -4 -9 -10z"/>
<path d="M1760 6470 c-13 -8 -13 -10 2 -10 9 0 20 5 23 10 8 13 -5 13 -25 0z"/>
<path d="M863 6451 c-32 -27 -28 -34 7 -16 17 9 30 20 30 25 0 15 -12 12 -37
-9z"/>
<path d="M298 6423 c6 -2 18 -2 25 0 6 3 1 5 -13 5 -14 0 -19 -2 -12 -5z"/>
<path d="M269 6350 c-9 -5 -30 -8 -47 -5 -18 2 -34 0 -37 -4 -2 -5 14 -11 38
-14 33 -5 46 -2 62 14 20 20 12 25 -16 9z"/>
<path d="M308 6336 c-25 -13 -54 -27 -64 -30 -14 -4 91 -1 114 4 1 0 2 4 2 10
0 5 -8 7 -17 3 -12 -4 -9 1 7 15 33 29 13 28 -42 -2z"/>
<path d="M570 6219 c0 -5 5 -7 10 -4 6 3 10 8 10 11 0 2 -4 4 -10 4 -5 0 -10
-5 -10 -11z"/>
<path d="M425 6201 c-37 -18 -38 -19 -14 -20 15 -1 37 8 50 19 30 25 16 25
-36 1z"/>
<path d="M527 6193 c-10 -9 -9 -23 2 -23 5 0 11 7 15 15 5 15 -5 20 -17 8z"/>
<path d="M340 6120 c0 -5 -5 -10 -11 -10 -6 0 -22 -9 -36 -20 -14 -11 -34 -20
-44 -20 -10 0 -20 -4 -23 -8 -2 -4 19 -8 48 -7 42 0 58 5 79 25 32 30 34 50 7
50 -11 0 -20 -4 -20 -10z"/>
<path d="M4275 6040 c3 -5 11 -10 16 -10 6 0 7 5 4 10 -3 6 -11 10 -16 10 -6
0 -7 -4 -4 -10z"/>
<path d="M182 6028 c3 -7 13 -15 23 -17 17 -3 17 -2 3 13 -20 19 -31 21 -26 4z"/>
<path d="M265 6000 c-3 -5 -1 -10 4 -10 6 0 11 5 11 10 0 6 -2 10 -4 10 -3 0
-8 -4 -11 -10z"/>
<path d="M210 5980 c0 -5 5 -10 10 -10 6 0 10 5 10 10 0 6 -4 10 -10 10 -5 0
-10 -4 -10 -10z"/>
<path d="M170 5959 c0 -5 5 -7 10 -4 6 3 10 8 10 11 0 2 -4 4 -10 4 -5 0 -10
-5 -10 -11z"/>
<path d="M282 5934 c-23 -28 -28 -39 -19 -49 9 -9 21 -4 54 24 38 31 60 63 33
46 -6 -4 -17 -2 -24 5 -11 8 -21 3 -44 -26z"/>
<path d="M676 5953 c-3 -4 -16 -8 -27 -10 -41 -6 -119 -53 -119 -72 0 -10 -7
-24 -15 -31 -8 -7 -12 -16 -9 -22 3 -5 0 -15 -6 -23 -9 -11 -9 -15 -1 -15 6 0
14 7 17 15 4 8 15 15 26 15 11 0 33 14 48 30 23 25 25 30 10 30 -10 0 -20 -10
-24 -22 -4 -17 -8 -20 -17 -11 -6 6 -9 19 -6 27 6 15 16 18 65 20 26 1 55 28
39 38 -9 5 -7 8 4 8 9 0 22 7 29 15 12 15 0 22 -14 8z"/>
<path d="M590 5819 c-22 -23 -37 -45 -34 -50 3 -6 15 2 26 16 10 14 26 25 34
25 8 0 14 9 14 19 0 11 6 22 13 24 9 4 9 6 -1 6 -6 1 -30 -17 -52 -40z"/>
<path d="M530 5739 c0 -5 5 -7 10 -4 6 3 10 8 10 11 0 2 -4 4 -10 4 -5 0 -10
-5 -10 -11z"/>
<path d="M2500 5708 c0 -16 5 -28 10 -28 13 0 13 20 0 40 -8 12 -10 9 -10 -12z"/>
<path d="M546 5692 c-2 -4 4 -9 15 -9 10 -1 19 2 19 8 0 11 -27 12 -34 1z"/>
<path d="M371 5638 c0 -12 3 -17 6 -10 2 6 9 9 15 6 6 -4 9 -1 6 6 -8 24 -28
23 -27 -2z"/>
<path d="M433 5635 c-9 -24 1 -27 15 -5 8 13 8 20 2 20 -6 0 -13 -7 -17 -15z"/>
<path d="M484 5625 c-9 -22 1 -29 15 -11 8 10 9 16 1 21 -5 3 -13 -1 -16 -10z"/>
<path d="M505 5590 c-3 -5 -1 -10 4 -10 6 0 11 5 11 10 0 6 -2 10 -4 10 -3 0
-8 -4 -11 -10z"/>
<path d="M0 5240 c0 -189 2 -341 5 -339 7 8 9 668 2 676 -4 3 -7 -148 -7 -337z"/>
<path d="M473 5554 c-5 -13 -7 -13 -14 -2 -6 9 -9 7 -9 -9 0 -30 14 -29 28 2
6 14 9 25 6 25 -2 0 -7 -7 -11 -16z"/>
<path d="M540 5540 c0 -5 7 -7 15 -4 8 4 15 8 15 10 0 2 -7 4 -15 4 -8 0 -15
-4 -15 -10z"/>
<path d="M2280 5477 c0 -20 5 -39 11 -42 7 -5 8 5 3 32 -9 51 -14 54 -14 10z"/>
<path d="M480 5422 c0 -5 7 -13 16 -16 10 -4 14 -1 12 6 -5 15 -28 23 -28 10z"/>
<path d="M521 5403 c-1 -6 -4 -20 -7 -30 -5 -17 -5 -17 6 0 6 10 9 23 6 30 -3
9 -5 9 -5 0z"/>
<path d="M470 5361 c0 -25 6 -27 13 -6 4 8 2 17 -3 20 -6 4 -10 -3 -10 -14z"/>
<path d="M517 5296 c-4 -10 -5 -21 -2 -24 9 -9 17 6 13 25 -3 17 -4 17 -11 -1z"/>
<path d="M517 4976 c-4 -10 -1 -13 9 -9 15 6 19 23 5 23 -5 0 -11 -7 -14 -14z"/>
<path d="M2 4810 c0 -14 2 -19 5 -12 2 6 2 18 0 25 -3 6 -5 1 -5 -13z"/>
<path d="M2 4750 c0 -14 2 -19 5 -12 2 6 2 18 0 25 -3 6 -5 1 -5 -13z"/>
<path d="M1018 4733 c7 -3 16 -2 19 1 4 3 -2 6 -13 5 -11 0 -14 -3 -6 -6z"/>
<path d="M2 4630 c0 -14 2 -19 5 -12 2 6 2 18 0 25 -3 6 -5 1 -5 -13z"/>
<path d="M6395 4085 c-33 -7 -105 -21 -160 -31 l-100 -18 85 -7 c47 -4 159
-10 250 -14 296 -13 335 -17 335 -39 0 -16 -11 -22 -50 -31 -27 -5 -50 -16
-50 -23 0 -6 5 -12 10 -13 6 0 18 -8 28 -17 15 -13 39 -16 145 -14 69 2 131 7
137 12 6 5 37 12 68 15 43 4 58 2 64 -9 5 -10 28 -16 63 -18 52 -3 55 -4 53
-28 -4 -52 6 -70 37 -70 23 0 30 5 30 19 0 28 21 37 37 16 9 -13 10 -21 2 -26
-7 -4 -5 -9 6 -13 9 -3 13 -10 10 -16 -3 -5 -2 -10 4 -10 5 0 9 -9 8 -20 -1
-11 -7 -20 -14 -20 -7 0 -10 -7 -7 -15 5 -12 -3 -15 -32 -16 -33 -2 -34 -3 -9
-6 56 -7 76 -14 70 -23 -4 -6 12 -10 39 -10 85 0 47 -18 -51 -24 -148 -10
-186 -17 -174 -29 6 -6 11 -19 11 -29 0 -10 4 -18 9 -18 5 0 16 -3 25 -6 11
-4 19 2 26 22 l11 27 21 -23 21 -23 8 22 c10 24 24 28 32 7 5 -12 24 -14 86
-12 45 2 87 9 95 15 10 8 16 9 21 1 9 -14 82 -13 88 3 3 9 9 9 26 -1 19 -11
23 -10 33 13 14 31 8 38 -34 37 -130 -4 -160 -1 -147 12 2 3 30 6 61 8 l56 3
-2 40 c-1 31 -6 42 -26 52 l-25 13 28 0 c17 0 27 6 28 15 3 32 4 36 17 44 8 5
14 12 14 17 1 16 17 54 24 54 13 0 64 -35 65 -45 1 -20 18 31 18 58 1 40 71
71 136 61 l45 -6 0 56 0 56 -187 0 c-104 1 -215 3 -248 5 -33 2 -166 6 -295
10 -129 3 -307 7 -395 10 -88 3 -218 7 -290 9 -83 3 -152 -1 -190 -9z m673
-72 c-2 -9 -8 -18 -15 -20 -7 -3 -9 3 -6 16 6 25 26 28 21 4z m-102 -30 c-11
-11 -19 6 -11 24 8 17 8 17 12 0 3 -10 2 -21 -1 -24z m134 -37 c0 -3 -4 -8
-10 -11 -5 -3 -10 -1 -10 4 0 6 5 11 10 11 6 0 10 -2 10 -4z m40 0 c0 -2 -7
-6 -15 -10 -8 -3 -15 -1 -15 4 0 6 7 10 15 10 8 0 15 -2 15 -4z m327 -152 c-3
-3 -12 -4 -19 -1 -8 3 -5 6 6 6 11 1 17 -2 13 -5z m33 -54 c0 -5 -9 -10 -19
-10 -11 0 -23 5 -26 10 -4 6 5 10 19 10 14 0 26 -4 26 -10z"/>
<path d="M6195 3810 c-7 -12 437 -12 475 0 14 5 -83 8 -222 9 -155 1 -249 -3
-253 -9z"/>
<path d="M7318 3753 c7 -3 16 -2 19 1 4 3 -2 6 -13 5 -11 0 -14 -3 -6 -6z"/>
<path d="M6707 3744 c-4 -4 -7 -22 -7 -40 0 -42 -14 -50 -40 -24 -18 18 -28
20 -73 14 -29 -4 -61 -12 -72 -17 -11 -6 -26 -10 -32 -9 -7 2 -13 -6 -13 -17
0 -14 8 -21 28 -23 15 -2 28 -10 28 -18 1 -8 3 -26 4 -40 l2 -25 7 25 c9 34
48 40 53 8 2 -19 10 -23 46 -26 40 -3 43 -2 37 17 -4 12 -2 21 4 21 6 0 11 -9
11 -20 0 -11 5 -20 10 -20 6 0 10 10 10 23 l1 22 12 -23 c12 -20 15 -21 32 -8
17 12 18 17 7 37 -7 13 -12 35 -11 49 2 29 -34 104 -44 94z"/>
<path d="M5716 3694 c-8 -21 1 -34 23 -34 10 0 21 -9 24 -20 3 -10 0 -18 -5
-17 -13 3 -34 -30 -25 -39 4 -4 20 4 35 19 21 20 31 24 45 16 9 -6 21 -8 26
-4 5 3 12 1 16 -5 3 -5 1 -10 -4 -10 -6 0 -11 -7 -11 -15 0 -9 9 -15 25 -15
28 0 33 20 10 43 -10 10 -13 25 -9 45 8 39 -15 52 -89 52 -41 0 -56 -4 -61
-16z"/>
<path d="M7330 3700 c0 -6 7 -10 15 -10 8 0 15 2 15 4 0 2 -7 6 -15 10 -8 3
-15 1 -15 -4z"/>
<path d="M5073 3690 c-13 -5 -23 -15 -23 -22 0 -7 -12 -22 -27 -35 l-28 -22
51 -1 c27 0 55 -5 61 -11 7 -7 23 -9 37 -5 31 8 36 49 9 66 -13 8 -14 13 -5
16 6 3 10 10 6 15 -7 11 -52 11 -81 -1z"/>
<path d="M4874 3674 c3 -9 6 -18 6 -20 0 -2 23 -4 50 -4 28 0 50 3 50 6 0 16
-38 33 -74 34 -31 0 -37 -3 -32 -16z"/>
<path d="M5200 3647 c0 -40 13 -67 32 -67 15 0 8 78 -8 94 -22 23 -24 21 -24
-27z"/>
<path d="M5646 3678 c-9 -21 -96 -42 -143 -35 -29 5 -33 4 -23 -8 7 -8 26 -15
42 -15 17 0 37 -8 46 -20 10 -11 35 -22 57 -26 35 -5 43 -2 69 25 l29 30 -31
18 c-17 10 -33 25 -35 33 -3 13 -5 12 -11 -2z"/>
<path d="M6853 3683 c-22 -8 -14 -23 13 -23 15 0 24 5 22 12 -5 14 -18 18 -35
11z"/>
<path d="M6900 3670 c0 -5 11 -10 24 -10 14 0 28 5 31 10 4 6 -7 10 -24 10
-17 0 -31 -4 -31 -10z"/>
<path d="M5972 3616 c2 -37 7 -50 20 -54 10 -2 18 -11 18 -18 0 -8 7 -14 15
-14 8 0 12 6 9 15 -4 10 7 20 35 32 44 19 50 36 26 70 -13 19 -24 22 -70 20
l-55 -2 2 -49z"/>
<path d="M6196 3638 c-7 -18 -16 -50 -19 -70 -5 -35 -4 -38 18 -38 14 0 29 9
35 20 12 23 40 27 40 6 0 -15 53 -32 68 -22 5 3 7 19 4 36 -4 25 -1 32 17 37
14 3 21 13 21 29 0 33 -21 42 -38 16 -18 -28 -42 -28 -42 -2 0 17 -7 20 -46
20 -41 0 -46 -3 -58 -32z m121 -54 c-3 -3 -16 -4 -29 -2 l-23 5 25 10 c23 10
41 1 27 -13z m-81 5 c10 -17 -13 -36 -27 -22 -12 12 -4 33 11 33 5 0 12 -5 16
-11z"/>
<path d="M4495 3621 c5 -10 133 -6 143 3 3 3 -29 6 -72 6 -44 0 -75 -4 -71 -9z"/>
<path d="M4655 3620 c-9 -15 43 -36 56 -23 6 6 8 16 5 22 -9 14 -53 14 -61 1z"/>
<path d="M6423 3595 c0 -8 4 -15 9 -15 4 0 8 4 8 9 0 6 -4 12 -8 15 -5 3 -9
-1 -9 -9z"/>
<path d="M6992 3584 c-6 -11 -27 -17 -68 -20 -95 -7 -105 -39 -11 -35 78 3
130 32 111 62 -8 14 -22 11 -32 -7z"/>
<path d="M7170 3583 c0 -10 4 -14 8 -8 4 6 11 13 16 18 5 4 2 7 -7 7 -10 0
-17 -8 -17 -17z"/>
<path d="M6088 3553 c-25 -6 -22 -20 4 -19 12 0 23 7 26 14 4 12 0 13 -30 5z"/>
<path d="M6360 3550 c0 -5 5 -10 10 -10 6 0 10 5 10 10 0 6 -4 10 -10 10 -5 0
-10 -4 -10 -10z"/>
<path d="M5899 3438 c-19 -5 -51 -9 -72 -9 -20 0 -35 -4 -32 -9 6 -10 114 -6
170 7 l40 9 -36 5 c-19 2 -51 1 -70 -3z"/>
<path d="M5690 3430 c0 -5 5 -10 11 -10 5 0 7 5 4 10 -3 6 -8 10 -11 10 -2 0
-4 -4 -4 -10z"/>
<path d="M6018 3433 c6 -2 18 -2 25 0 6 3 1 5 -13 5 -14 0 -19 -2 -12 -5z"/>
<path d="M6550 3426 c0 -8 5 -18 10 -21 6 -3 10 1 10 9 0 8 -4 18 -10 21 -5 3
-10 -1 -10 -9z"/>
<path d="M7670 1040 c-9 -6 -10 -10 -3 -10 6 0 15 5 18 10 8 12 4 12 -15 0z"/>
<path d="M7118 993 c7 -3 16 -2 19 1 4 3 -2 6 -13 5 -11 0 -14 -3 -6 -6z"/>
</g>
</svg>
